<?xml version="1.0" encoding="UTF-8" standalone="no"?>
<!-- Created with Inkscape (http://www.inkscape.org/) -->

<svg
   width="105.95611mm"
   height="41.007111mm"
   viewBox="0 0 105.95611 41.007111"
   version="1.1"
   id="svg5"
   inkscape:version="1.1.2 (0a00cf5339, 2022-02-04)"
   sodipodi:docname="drawing.svg"
   xmlns:inkscape="http://www.inkscape.org/namespaces/inkscape"
   xmlns:sodipodi="http://sodipodi.sourceforge.net/DTD/sodipodi-0.dtd"
   xmlns="http://www.w3.org/2000/svg"
   xmlns:svg="http://www.w3.org/2000/svg">
  <sodipodi:namedview
     id="namedview7"
     pagecolor="#ffffff"
     bordercolor="#666666"
     borderopacity="1.0"
     inkscape:pageshadow="2"
     inkscape:pageopacity="0.0"
     inkscape:pagecheckerboard="0"
     inkscape:document-units="mm"
     showgrid="false"
     fit-margin-top="0"
     fit-margin-left="0"
     fit-margin-right="0"
     fit-margin-bottom="0"
     inkscape:zoom="0.77771465"
     inkscape:cx="165.2277"
     inkscape:cy="-45.003653"
     inkscape:window-width="3754"
     inkscape:window-height="2082"
     inkscape:window-x="0"
     inkscape:window-y="0"
     inkscape:window-maximized="1"
     inkscape:current-layer="layer1" />
  <defs
     id="defs2" />
  <g
     inkscape:label="Layer 1"
     inkscape:groupmode="layer"
     id="layer1"
     transform="translate(-61.331225,-160.14593)">
    <g
       id="g832"
       transform="matrix(0.35277777,0,0,0.35277777,61.331267,160.14535)">
      <g
         id="g834">
        <path
           d="m 3.621,13.496 h 126.961 c 1.836,0 3.316,1.481 3.316,3.316 v 95.809 c 0,1.836 -1.48,3.317 -3.316,3.317 H 3.621 c -1.836,0 -3.316,-1.481 -3.316,-3.317 V 16.812 c 0,-1.835 1.48,-3.316 3.316,-3.316 z"
           style="fill:#fffbee;fill-opacity:1;fill-rule:nonzero;stroke:#000000;stroke-width:0.608477;stroke-linecap:round;stroke-linejoin:round;stroke-miterlimit:2.8;stroke-dasharray:0.730175, 2.19053;stroke-dashoffset:0;stroke-opacity:1"
           id="path836" />
      </g>
      <g
         id="g838">
        <path
           d="m 169.734,13.496 h 126.993 c 1.835,0 3.316,1.481 3.316,3.316 v 95.809 c 0,1.836 -1.481,3.317 -3.316,3.317 H 169.734 c -1.839,0 -3.316,-1.481 -3.316,-3.317 V 16.812 c 0,-1.835 1.477,-3.316 3.316,-3.316 z"
           style="fill:#fffbee;fill-opacity:1;fill-rule:nonzero;stroke:#000000;stroke-width:0.608553;stroke-linecap:round;stroke-linejoin:round;stroke-miterlimit:2.8;stroke-dasharray:0.730264, 2.19079;stroke-dashoffset:0;stroke-opacity:1"
           id="path840" />
      </g>
      <g
         id="g842">
        <path
           d="m 25.719,62.551 c -0.953,1.109 -2.625,1.242 -3.746,0.297 -1.118,-0.946 -1.266,-2.614 -0.328,-3.743 0.937,-1.125 2.605,-1.285 3.738,-0.359 1.137,0.93 1.308,2.598 0.39,3.738"
           style="fill:#ffffff;fill-opacity:1;fill-rule:nonzero;stroke:#c08711;stroke-width:0.637795;stroke-linecap:round;stroke-linejoin:round;stroke-miterlimit:2.8;stroke-dasharray:none;stroke-opacity:1"
           id="path844" />
      </g>
      <g
         id="g846">
        <path
           d="m 25.719,109.816 c -0.953,1.11 -2.625,1.246 -3.746,0.297 -1.118,-0.945 -1.266,-2.613 -0.328,-3.738 0.937,-1.129 2.605,-1.289 3.738,-0.363 1.137,0.929 1.308,2.597 0.39,3.738"
           style="fill:#ffffff;fill-opacity:1;fill-rule:nonzero;stroke:#c08711;stroke-width:0.637795;stroke-linecap:round;stroke-linejoin:round;stroke-miterlimit:2.8;stroke-dasharray:none;stroke-opacity:1"
           id="path848" />
      </g>
      <g
         id="g850">
        <path
           d="m 35.242,41.965 c -0.226,0.98 -0.351,2.402 -0.14,3.281 0,0 -1.086,-0.668 -1.028,-1.379 -0.601,0.379 -1.691,-0.289 -1.691,-0.289 0.879,-0.211 2.086,-0.965 2.859,-1.613 z"
           style="fill:#cd80cd;fill-opacity:1;fill-rule:evenodd;stroke:#cd80cd;stroke-width:0.425197;stroke-linecap:butt;stroke-linejoin:miter;stroke-miterlimit:4;stroke-dasharray:none;stroke-opacity:1"
           id="path852" />
      </g>
      <g
         id="g854">
        <path
           d="m 23.695,60.812 h 7.961"
           style="fill:none;stroke:#000000;stroke-width:0.637795;stroke-linecap:round;stroke-linejoin:round;stroke-miterlimit:2.8;stroke-dasharray:none;stroke-opacity:1"
           id="path856" />
      </g>
      <g
         id="g858">
        <path
           d="m 33.57,60.812 c -0.957,0.317 -2.23,0.958 -2.871,1.594 0,0 0,-1.277 0.641,-1.594 -0.641,-0.32 -0.641,-1.593 -0.641,-1.593 0.641,0.636 1.914,1.273 2.871,1.593 z"
           style="fill:#000000;fill-opacity:1;fill-rule:evenodd;stroke:#000000;stroke-width:0.425197;stroke-linecap:butt;stroke-linejoin:miter;stroke-miterlimit:4;stroke-dasharray:none;stroke-opacity:1"
           id="path860" />
      </g>
      <g
         id="g862">
        <path
           d="m 23.695,60.812 v -7.96"
           style="fill:none;stroke:#000000;stroke-width:0.637795;stroke-linecap:round;stroke-linejoin:round;stroke-miterlimit:2.8;stroke-dasharray:none;stroke-opacity:1"
           id="path864" />
      </g>
      <g
         id="g866">
        <path
           d="M 23.695,60.812 34.242,43.598"
           style="fill:none;stroke:#cd80cd;stroke-width:0.637795;stroke-linecap:round;stroke-linejoin:round;stroke-miterlimit:2.8;stroke-dasharray:none;stroke-opacity:1"
           id="path868" />
      </g>
      <g
         id="g870">
        <path
           d="m 23.695,50.938 c 0.321,0.957 0.957,2.23 1.594,2.871 0,0 -1.273,0 -1.594,-0.641 -0.316,0.641 -1.593,0.641 -1.593,0.641 0.636,-0.641 1.277,-1.914 1.593,-2.871 z"
           style="fill:#000000;fill-opacity:1;fill-rule:evenodd;stroke:#000000;stroke-width:0.425197;stroke-linecap:butt;stroke-linejoin:miter;stroke-miterlimit:4;stroke-dasharray:none;stroke-opacity:1"
           id="path872" />
      </g>
      <g
         id="g874">
        <path
           d="m 23.695,60.812 v 47.266"
           style="fill:none;stroke:#f58e8e;stroke-width:0.637795;stroke-linecap:round;stroke-linejoin:round;stroke-miterlimit:2.8;stroke-dasharray:none;stroke-opacity:1"
           id="path876" />
      </g>
      <g
         id="g878">
        <path
           d="m 23.695,85.406 c -0.316,-0.957 -0.957,-2.234 -1.593,-2.871 0,0 1.277,0 1.593,0.637 0.321,-0.637 1.594,-0.637 1.594,-0.637 -0.637,0.637 -1.273,1.914 -1.594,2.871 z"
           style="fill:#f58e8e;fill-opacity:1;fill-rule:evenodd;stroke:#f58e8e;stroke-width:0.425197;stroke-linecap:butt;stroke-linejoin:miter;stroke-miterlimit:4;stroke-dasharray:none;stroke-opacity:1"
           id="path880" />
      </g>
      <g
         id="g882">
        <path
           d="m 17.797,54.59 c -0.953,1.109 -2.625,1.242 -3.742,0.297 -1.121,-0.946 -1.266,-2.614 -0.332,-3.742 0.937,-1.125 2.605,-1.286 3.742,-0.36 1.133,0.93 1.305,2.598 0.39,3.738"
           style="fill:#ffffff;fill-opacity:1;fill-rule:nonzero;stroke:#c08711;stroke-width:0.637795;stroke-linecap:round;stroke-linejoin:round;stroke-miterlimit:2.8;stroke-dasharray:none;stroke-opacity:1"
           id="path884" />
      </g>
      <g
         id="g886">
        <path
           d="m 39.781,40.66 c -0.957,1.11 -2.629,1.242 -3.746,0.297 -1.117,-0.945 -1.265,-2.613 -0.328,-3.742 0.934,-1.125 2.605,-1.285 3.738,-0.36 1.133,0.93 1.309,2.598 0.391,3.739"
           style="fill:#ffffff;fill-opacity:1;fill-rule:nonzero;stroke:#c08711;stroke-width:0.637795;stroke-linecap:round;stroke-linejoin:round;stroke-miterlimit:2.8;stroke-dasharray:none;stroke-opacity:1"
           id="path888" />
      </g>
      <g
         id="g890">
        <path
           d="m 42.156,55.422 c -0.957,1.109 -2.629,1.242 -3.746,0.297 -1.117,-0.946 -1.265,-2.617 -0.328,-3.742 0.938,-1.125 2.606,-1.286 3.738,-0.36 1.133,0.926 1.309,2.594 0.391,3.735"
           style="fill:#ffffff;fill-opacity:1;fill-rule:nonzero;stroke:#c08711;stroke-width:0.637795;stroke-linecap:round;stroke-linejoin:round;stroke-miterlimit:2.8;stroke-dasharray:none;stroke-opacity:1"
           id="path892" />
      </g>
      <g
         id="g894">
        <path
           d="m 13.527,65.535 c -0.957,1.11 -2.629,1.242 -3.746,0.297 -1.117,-0.945 -1.265,-2.613 -0.328,-3.742 0.934,-1.125 2.606,-1.285 3.738,-0.36 1.133,0.93 1.309,2.594 0.391,3.739"
           style="fill:#ffffff;fill-opacity:1;fill-rule:nonzero;stroke:#c08711;stroke-width:0.637795;stroke-linecap:round;stroke-linejoin:round;stroke-miterlimit:2.8;stroke-dasharray:none;stroke-opacity:1"
           id="path896" />
      </g>
      <g
         id="g898">
        <path
           d="m 23.609,43.645 c -0.953,1.109 -2.625,1.242 -3.742,0.296 -1.121,-0.945 -1.265,-2.613 -0.328,-3.742 0.934,-1.125 2.606,-1.285 3.738,-0.359 1.133,0.93 1.309,2.598 0.391,3.738"
           style="fill:#ffffff;fill-opacity:1;fill-rule:nonzero;stroke:#c08711;stroke-width:0.637795;stroke-linecap:round;stroke-linejoin:round;stroke-miterlimit:2.8;stroke-dasharray:none;stroke-opacity:1"
           id="path900" />
      </g>
      <g
         id="g902">
        <path
           d="m 101.617,63.48 c -1.465,-0.019 -2.64,-1.214 -2.637,-2.679 0.008,-1.465 1.192,-2.649 2.657,-2.656 1.465,-0.008 2.66,1.167 2.679,2.632 0.02,1.465 -1.148,2.672 -2.613,2.7"
           style="fill:#ffffff;fill-opacity:1;fill-rule:nonzero;stroke:#c08711;stroke-width:0.637796;stroke-linecap:round;stroke-linejoin:round;stroke-miterlimit:2.8;stroke-dasharray:none;stroke-opacity:1"
           id="path904" />
      </g>
      <g
         id="g906">
        <path
           d="m 101.648,60.812 19.969,-2.988"
           style="fill:none;stroke:#cd80cd;stroke-width:0.637795;stroke-linecap:round;stroke-linejoin:round;stroke-miterlimit:2.8;stroke-dasharray:none;stroke-opacity:1"
           id="path908" />
      </g>
      <g
         id="g910">
        <path
           d="m 123.508,57.543 c -0.899,0.457 -2.067,1.273 -2.602,2 0,0 -0.187,-1.262 0.395,-1.672 -0.68,-0.219 -0.867,-1.48 -0.867,-1.48 0.726,0.535 2.082,0.976 3.074,1.152 z"
           style="fill:#cd80cd;fill-opacity:1;fill-rule:evenodd;stroke:#cd80cd;stroke-width:0.425197;stroke-linecap:butt;stroke-linejoin:miter;stroke-miterlimit:4;stroke-dasharray:none;stroke-opacity:1"
           id="path912" />
      </g>
      <g
         id="g914">
        <path
           d="m 101.648,60.812 5.118,6.098"
           style="fill:none;stroke:#000000;stroke-width:0.637795;stroke-linecap:round;stroke-linejoin:round;stroke-miterlimit:2.8;stroke-dasharray:none;stroke-opacity:1"
           id="path916" />
      </g>
      <g
         id="g918">
        <path
           d="m 107.996,68.375 c -0.859,-0.527 -2.168,-1.094 -3.066,-1.172 0,0 0.976,-0.82 1.632,-0.539 -0.167,-0.695 0.809,-1.512 0.809,-1.512 -0.078,0.899 0.254,2.286 0.625,3.223 z"
           style="fill:#000000;fill-opacity:1;fill-rule:evenodd;stroke:#000000;stroke-width:0.425197;stroke-linecap:butt;stroke-linejoin:miter;stroke-miterlimit:4;stroke-dasharray:none;stroke-opacity:1"
           id="path920" />
      </g>
      <g
         id="g922">
        <path
           d="m 101.648,60.812 6.098,-5.117"
           style="fill:none;stroke:#000000;stroke-width:0.637795;stroke-linecap:round;stroke-linejoin:round;stroke-miterlimit:2.8;stroke-dasharray:none;stroke-opacity:1"
           id="path924" />
      </g>
      <g
         id="g926">
        <path
           d="m 109.215,54.465 c -0.531,0.859 -1.098,2.168 -1.176,3.066 0,0 -0.82,-0.976 -0.535,-1.633 -0.695,0.168 -1.516,-0.808 -1.516,-0.808 0.899,0.078 2.285,-0.254 3.227,-0.625 z"
           style="fill:#000000;fill-opacity:1;fill-rule:evenodd;stroke:#000000;stroke-width:0.425197;stroke-linecap:butt;stroke-linejoin:miter;stroke-miterlimit:4;stroke-dasharray:none;stroke-opacity:1"
           id="path928" />
      </g>
      <g
         id="g930">
        <path
           d="m 103.121,52.699 c -1.465,-0.019 -2.644,-1.215 -2.637,-2.679 0.004,-1.465 1.192,-2.649 2.657,-2.657 1.461,-0.008 2.66,1.168 2.675,2.633 0.02,1.465 -1.144,2.672 -2.609,2.699"
           style="fill:#ffffff;fill-opacity:1;fill-rule:nonzero;stroke:#c08711;stroke-width:0.637796;stroke-linecap:round;stroke-linejoin:round;stroke-miterlimit:2.8;stroke-dasharray:none;stroke-opacity:1"
           id="path932" />
      </g>
      <path
         d="m 104.445,0.137 h 86.062 v 37.195 h -86.062 z"
         style="fill:#ffffff;fill-opacity:1;fill-rule:nonzero;stroke:none"
         id="path934" />
      <g
         id="g936">
        <path
           d="m 104.445,0.137 h 86.062 v 37.195 h -86.062 z"
           style="fill:none;stroke:#000000;stroke-width:0.270719;stroke-linecap:butt;stroke-linejoin:miter;stroke-miterlimit:4;stroke-dasharray:none;stroke-opacity:0.335264"
           id="path938" />
      </g>
      <g
         id="g940">
        <path
           d="m 127.426,60.18 c -1.465,-0.02 -2.641,-1.211 -2.637,-2.676 0.004,-1.465 1.188,-2.652 2.656,-2.66 1.465,-0.004 2.66,1.172 2.676,2.633 0.02,1.464 -1.144,2.671 -2.609,2.703"
           style="fill:#ffffff;fill-opacity:1;fill-rule:nonzero;stroke:#c08711;stroke-width:0.637796;stroke-linecap:round;stroke-linejoin:round;stroke-miterlimit:2.8;stroke-dasharray:none;stroke-opacity:1"
           id="path942" />
      </g>
      <g
         id="g944">
        <path
           d="m 117.645,71.488 c -1.465,-0.019 -2.645,-1.215 -2.637,-2.679 0.008,-1.465 1.191,-2.649 2.656,-2.657 1.465,-0.007 2.66,1.168 2.68,2.633 0.015,1.465 -1.149,2.672 -2.614,2.699"
           style="fill:#ffffff;fill-opacity:1;fill-rule:nonzero;stroke:#c08711;stroke-width:0.637796;stroke-linecap:round;stroke-linejoin:round;stroke-miterlimit:2.8;stroke-dasharray:none;stroke-opacity:1"
           id="path946" />
      </g>
      <g
         id="g948">
        <path
           d="m 91.492,56.055 c -1.465,-0.016 -2.64,-1.211 -2.633,-2.676 0.004,-1.465 1.188,-2.649 2.653,-2.656 1.465,-0.008 2.66,1.168 2.679,2.632 0.02,1.465 -1.144,2.668 -2.609,2.7"
           style="fill:#ffffff;fill-opacity:1;fill-rule:nonzero;stroke:#c08711;stroke-width:0.637796;stroke-linecap:round;stroke-linejoin:round;stroke-miterlimit:2.8;stroke-dasharray:none;stroke-opacity:1"
           id="path950" />
      </g>
      <g
         id="g952">
        <path
           d="m 113.84,32.984 c -1.465,-0.015 -2.641,-1.211 -2.633,-2.675 0.004,-1.461 1.188,-2.649 2.652,-2.653 1.465,-0.011 2.661,1.164 2.68,2.629 0.02,1.465 -1.144,2.672 -2.609,2.699"
           style="fill:#ffffff;fill-opacity:1;fill-rule:nonzero;stroke:#c08711;stroke-width:0.637796;stroke-linecap:round;stroke-linejoin:round;stroke-miterlimit:2.8;stroke-dasharray:none;stroke-opacity:1"
           id="path954" />
      </g>
      <g
         id="g956">
        <path
           d="m 114.746,49.711 c -1.465,-0.016 -2.641,-1.211 -2.641,-2.676 0.008,-1.465 1.196,-2.652 2.661,-2.656 1.464,-0.008 2.66,1.168 2.679,2.633 0.016,1.465 -1.148,2.668 -2.613,2.699"
           style="fill:#ffffff;fill-opacity:1;fill-rule:nonzero;stroke:#c08711;stroke-width:0.637796;stroke-linecap:round;stroke-linejoin:round;stroke-miterlimit:2.8;stroke-dasharray:none;stroke-opacity:1"
           id="path958" />
      </g>
      <g
         id="g960">
        <path
           d="m 103.672,109.816 c -0.957,1.11 -2.625,1.246 -3.746,0.297 -1.117,-0.945 -1.266,-2.613 -0.328,-3.742 0.937,-1.125 2.605,-1.285 3.738,-0.359 1.137,0.929 1.309,2.597 0.391,3.738"
           style="fill:#ffffff;fill-opacity:1;fill-rule:nonzero;stroke:#c08711;stroke-width:0.637795;stroke-linecap:round;stroke-linejoin:round;stroke-miterlimit:2.8;stroke-dasharray:none;stroke-opacity:1"
           id="path962" />
      </g>
      <g
         id="g964">
        <path
           d="m 269.73,109.527 c -0.957,1.11 -2.625,1.246 -3.746,0.297 -1.117,-0.945 -1.265,-2.613 -0.328,-3.742 0.938,-1.125 2.606,-1.285 3.739,-0.359 1.136,0.929 1.308,2.597 0.39,3.738"
           style="fill:#ffffff;fill-opacity:1;fill-rule:nonzero;stroke:#c08711;stroke-width:0.637795;stroke-linecap:round;stroke-linejoin:round;stroke-miterlimit:2.8;stroke-dasharray:none;stroke-opacity:1"
           id="path966" />
      </g>
      <g
         id="g968">
        <path
           d="m 101.648,85.406 c -0.32,-0.957 -0.957,-2.234 -1.593,-2.871 0,0 1.273,0 1.593,0.637 0.321,-0.637 1.594,-0.637 1.594,-0.637 -0.637,0.637 -1.273,1.914 -1.594,2.871 z"
           style="fill:#f58e8e;fill-opacity:1;fill-rule:evenodd;stroke:#f58e8e;stroke-width:0.425197;stroke-linecap:butt;stroke-linejoin:miter;stroke-miterlimit:4;stroke-dasharray:none;stroke-opacity:1"
           id="path970" />
      </g>
      <g
         id="g972">
        <path
           d="m 101.648,60.812 v 47.266"
           style="fill:none;stroke:#f58e8e;stroke-width:0.637795;stroke-linecap:round;stroke-linejoin:round;stroke-miterlimit:2.8;stroke-dasharray:none;stroke-opacity:1"
           id="path974" />
      </g>
      <g
         id="g976">
        <path
           d="m 62.617,36.402 v 60.41"
           style="fill:none;stroke:#949494;stroke-width:0.499325;stroke-linecap:round;stroke-linejoin:round;stroke-miterlimit:2.8;stroke-dasharray:1.49797, 1.49797;stroke-dashoffset:0;stroke-opacity:1"
           id="path978" />
      </g>
      <g
         id="g980">
        <path
           d="m 191.777,109.527 c -0.953,1.11 -2.625,1.246 -3.746,0.297 -1.117,-0.945 -1.265,-2.613 -0.328,-3.738 0.938,-1.129 2.606,-1.289 3.738,-0.363 1.137,0.929 1.309,2.597 0.391,3.738"
           style="fill:#ffffff;fill-opacity:1;fill-rule:nonzero;stroke:#c08711;stroke-width:0.637795;stroke-linecap:round;stroke-linejoin:round;stroke-miterlimit:2.8;stroke-dasharray:none;stroke-opacity:1"
           id="path982" />
      </g>
      <g
         id="g984">
        <path
           d="m 191.777,62.262 c -0.953,1.109 -2.625,1.242 -3.746,0.297 -1.117,-0.946 -1.265,-2.614 -0.328,-3.743 0.938,-1.125 2.606,-1.285 3.738,-0.359 1.137,0.93 1.309,2.598 0.391,3.738"
           style="fill:#ffffff;fill-opacity:1;fill-rule:nonzero;stroke:#c08711;stroke-width:0.637795;stroke-linecap:round;stroke-linejoin:round;stroke-miterlimit:2.8;stroke-dasharray:none;stroke-opacity:1"
           id="path986" />
      </g>
      <g
         id="g988">
        <path
           d="M 189.754,60.523 200.301,43.309"
           style="fill:none;stroke:#cd80cd;stroke-width:0.637795;stroke-linecap:round;stroke-linejoin:round;stroke-miterlimit:2.8;stroke-dasharray:none;stroke-opacity:1"
           id="path990" />
      </g>
      <g
         id="g992">
        <path
           d="m 201.301,41.676 c -0.227,0.98 -0.352,2.402 -0.141,3.281 0,0 -1.086,-0.668 -1.027,-1.379 -0.602,0.379 -1.692,-0.289 -1.692,-0.289 0.879,-0.211 2.086,-0.965 2.86,-1.613 z"
           style="fill:#cd80cd;fill-opacity:1;fill-rule:evenodd;stroke:#cd80cd;stroke-width:0.425197;stroke-linecap:butt;stroke-linejoin:miter;stroke-miterlimit:4;stroke-dasharray:none;stroke-opacity:1"
           id="path994" />
      </g>
      <g
         id="g996">
        <path
           d="M 189.754,107.789 200.301,90.574"
           style="fill:none;stroke:#80c0cd;stroke-width:0.637795;stroke-linecap:round;stroke-linejoin:round;stroke-miterlimit:2.8;stroke-dasharray:none;stroke-opacity:1"
           id="path998" />
      </g>
      <g
         id="g1000">
        <path
           d="m 201.301,88.941 c -0.227,0.981 -0.352,2.403 -0.141,3.282 0,0 -1.086,-0.668 -1.027,-1.379 -0.602,0.379 -1.692,-0.289 -1.692,-0.289 0.879,-0.211 2.086,-0.965 2.86,-1.614 z"
           style="fill:#80c0cd;fill-opacity:1;fill-rule:evenodd;stroke:#80c0cd;stroke-width:0.425197;stroke-linecap:butt;stroke-linejoin:miter;stroke-miterlimit:4;stroke-dasharray:none;stroke-opacity:1"
           id="path1002" />
      </g>
      <g
         id="g1004">
        <path
           d="m 189.754,60.523 h 7.961"
           style="fill:none;stroke:#000000;stroke-width:0.637795;stroke-linecap:round;stroke-linejoin:round;stroke-miterlimit:2.8;stroke-dasharray:none;stroke-opacity:1"
           id="path1006" />
      </g>
      <g
         id="g1008">
        <path
           d="m 199.629,60.523 c -0.957,0.317 -2.231,0.957 -2.871,1.594 0,0 0,-1.277 0.64,-1.594 -0.64,-0.32 -0.64,-1.593 -0.64,-1.593 0.64,0.636 1.914,1.273 2.871,1.593 z"
           style="fill:#000000;fill-opacity:1;fill-rule:evenodd;stroke:#000000;stroke-width:0.425197;stroke-linecap:butt;stroke-linejoin:miter;stroke-miterlimit:4;stroke-dasharray:none;stroke-opacity:1"
           id="path1010" />
      </g>
      <g
         id="g1012">
        <path
           d="M 189.754,60.523 V 52.562"
           style="fill:none;stroke:#000000;stroke-width:0.637795;stroke-linecap:round;stroke-linejoin:round;stroke-miterlimit:2.8;stroke-dasharray:none;stroke-opacity:1"
           id="path1014" />
      </g>
      <g
         id="g1016">
        <path
           d="m 189.754,50.648 c 0.32,0.957 0.957,2.231 1.594,2.872 0,0 -1.274,0 -1.594,-0.641 -0.316,0.641 -1.594,0.641 -1.594,0.641 0.637,-0.641 1.278,-1.915 1.594,-2.872 z"
           style="fill:#000000;fill-opacity:1;fill-rule:evenodd;stroke:#000000;stroke-width:0.425197;stroke-linecap:butt;stroke-linejoin:miter;stroke-miterlimit:4;stroke-dasharray:none;stroke-opacity:1"
           id="path1018" />
      </g>
      <g
         id="g1020">
        <path
           d="m 107.684,5.574 9.191,0.008"
           style="fill:none;stroke:#cd80cd;stroke-width:0.6375;stroke-linecap:round;stroke-linejoin:round;stroke-miterlimit:2.8;stroke-dasharray:none;stroke-opacity:1"
           id="path1022" />
      </g>
      <g
         id="g1024">
        <path
           d="m 119.426,5.555 c -0.961,0.332 -2.227,0.984 -2.86,1.629 0,0 -0.011,-1.278 0.622,-1.602 -0.633,-0.312 -0.649,-1.586 -0.649,-1.586 0.641,0.629 1.926,1.254 2.887,1.559 z"
           style="fill:#cd80cd;fill-opacity:1;fill-rule:evenodd;stroke:#cd80cd;stroke-width:0.425197;stroke-linecap:butt;stroke-linejoin:miter;stroke-miterlimit:4;stroke-dasharray:none;stroke-opacity:1"
           id="path1026" />
      </g>
      <g
         id="g1028">
        <path
           d="m 107.684,13.375 9.191,0.008"
           style="fill:none;stroke:#80c0cd;stroke-width:0.6375;stroke-linecap:round;stroke-linejoin:round;stroke-miterlimit:2.8;stroke-dasharray:none;stroke-opacity:1"
           id="path1030" />
      </g>
      <g
         id="g1032">
        <path
           d="m 119.426,13.355 c -0.961,0.333 -2.227,0.985 -2.86,1.629 0,0 -0.011,-1.277 0.622,-1.601 -0.633,-0.313 -0.649,-1.586 -0.649,-1.586 0.641,0.629 1.926,1.254 2.887,1.558 z"
           style="fill:#80c0cd;fill-opacity:1;fill-rule:evenodd;stroke:#80c0cd;stroke-width:0.425197;stroke-linecap:butt;stroke-linejoin:miter;stroke-miterlimit:4;stroke-dasharray:none;stroke-opacity:1"
           id="path1034" />
      </g>
      <g
         id="g1036">
        <path
           d="m 189.754,60.523 v 47.266"
           style="fill:none;stroke:#f58e8e;stroke-width:0.637795;stroke-linecap:round;stroke-linejoin:round;stroke-miterlimit:2.8;stroke-dasharray:none;stroke-opacity:1"
           id="path1038" />
      </g>
      <g
         id="g1040">
        <path
           d="m 189.754,85.117 c -0.316,-0.957 -0.957,-2.234 -1.594,-2.871 0,0 1.278,0 1.594,0.637 0.32,-0.637 1.594,-0.637 1.594,-0.637 -0.637,0.637 -1.274,1.914 -1.594,2.871 z"
           style="fill:#f58e8e;fill-opacity:1;fill-rule:evenodd;stroke:#f58e8e;stroke-width:0.425197;stroke-linecap:butt;stroke-linejoin:miter;stroke-miterlimit:4;stroke-dasharray:none;stroke-opacity:1"
           id="path1042" />
      </g>
      <g
         id="g1044">
        <path
           d="m 183.855,54.301 c -0.953,1.109 -2.625,1.242 -3.742,0.297 -1.121,-0.946 -1.265,-2.614 -0.332,-3.743 0.938,-1.125 2.606,-1.285 3.742,-0.359 1.133,0.93 1.305,2.598 0.391,3.738"
           style="fill:#ffffff;fill-opacity:1;fill-rule:nonzero;stroke:#c08711;stroke-width:0.637795;stroke-linecap:round;stroke-linejoin:round;stroke-miterlimit:2.8;stroke-dasharray:none;stroke-opacity:1"
           id="path1046" />
      </g>
      <g
         id="g1048">
        <path
           d="m 205.84,40.371 c -0.957,1.109 -2.629,1.242 -3.746,0.297 -1.117,-0.945 -1.266,-2.613 -0.328,-3.742 0.933,-1.125 2.605,-1.285 3.738,-0.36 1.133,0.93 1.308,2.598 0.391,3.739"
           style="fill:#ffffff;fill-opacity:1;fill-rule:nonzero;stroke:#c08711;stroke-width:0.637795;stroke-linecap:round;stroke-linejoin:round;stroke-miterlimit:2.8;stroke-dasharray:none;stroke-opacity:1"
           id="path1050" />
      </g>
      <g
         id="g1052">
        <path
           d="m 208.215,55.133 c -0.957,1.109 -2.629,1.242 -3.746,0.297 -1.117,-0.946 -1.266,-2.618 -0.328,-3.742 0.937,-1.126 2.605,-1.286 3.738,-0.36 1.133,0.926 1.309,2.594 0.391,3.734"
           style="fill:#ffffff;fill-opacity:1;fill-rule:nonzero;stroke:#c08711;stroke-width:0.637795;stroke-linecap:round;stroke-linejoin:round;stroke-miterlimit:2.8;stroke-dasharray:none;stroke-opacity:1"
           id="path1054" />
      </g>
      <g
         id="g1056">
        <path
           d="m 179.586,65.246 c -0.957,1.109 -2.629,1.242 -3.746,0.297 -1.117,-0.945 -1.266,-2.613 -0.328,-3.742 0.933,-1.125 2.605,-1.285 3.738,-0.36 1.133,0.93 1.309,2.594 0.391,3.739"
           style="fill:#ffffff;fill-opacity:1;fill-rule:nonzero;stroke:#c08711;stroke-width:0.637795;stroke-linecap:round;stroke-linejoin:round;stroke-miterlimit:2.8;stroke-dasharray:none;stroke-opacity:1"
           id="path1058" />
      </g>
      <g
         id="g1060">
        <path
           d="m 189.668,43.355 c -0.953,1.11 -2.625,1.243 -3.742,0.297 -1.121,-0.945 -1.266,-2.613 -0.328,-3.742 0.933,-1.125 2.605,-1.285 3.738,-0.359 1.133,0.929 1.309,2.597 0.391,3.738"
           style="fill:#ffffff;fill-opacity:1;fill-rule:nonzero;stroke:#c08711;stroke-width:0.637795;stroke-linecap:round;stroke-linejoin:round;stroke-miterlimit:2.8;stroke-dasharray:none;stroke-opacity:1"
           id="path1062" />
      </g>
      <g
         id="g1064">
        <path
           d="m 267.676,63.191 c -1.465,-0.019 -2.641,-1.214 -2.637,-2.679 0.008,-1.465 1.191,-2.649 2.656,-2.657 1.465,-0.011 2.66,1.168 2.68,2.633 0.02,1.461 -1.148,2.672 -2.613,2.7"
           style="fill:#ffffff;fill-opacity:1;fill-rule:nonzero;stroke:#c08711;stroke-width:0.637796;stroke-linecap:round;stroke-linejoin:round;stroke-miterlimit:2.8;stroke-dasharray:none;stroke-opacity:1"
           id="path1066" />
      </g>
      <g
         id="g1068">
        <path
           d="m 267.707,60.523 19.969,-2.988"
           style="fill:none;stroke:#cd80cd;stroke-width:0.637795;stroke-linecap:round;stroke-linejoin:round;stroke-miterlimit:2.8;stroke-dasharray:none;stroke-opacity:1"
           id="path1070" />
      </g>
      <g
         id="g1072">
        <path
           d="m 289.566,57.254 c -0.898,0.457 -2.066,1.273 -2.601,2 0,0 -0.188,-1.262 0.394,-1.672 -0.679,-0.219 -0.867,-1.48 -0.867,-1.48 0.727,0.535 2.082,0.976 3.074,1.152 z"
           style="fill:#cd80cd;fill-opacity:1;fill-rule:evenodd;stroke:#cd80cd;stroke-width:0.425197;stroke-linecap:butt;stroke-linejoin:miter;stroke-miterlimit:4;stroke-dasharray:none;stroke-opacity:1"
           id="path1074" />
      </g>
      <g
         id="g1076">
        <path
           d="m 267.707,107.789 19.969,-2.988"
           style="fill:none;stroke:#80c0cd;stroke-width:0.637795;stroke-linecap:round;stroke-linejoin:round;stroke-miterlimit:2.8;stroke-dasharray:none;stroke-opacity:1"
           id="path1078" />
      </g>
      <g
         id="g1080">
        <path
           d="m 289.566,104.52 c -0.898,0.457 -2.066,1.273 -2.601,2 0,0 -0.188,-1.262 0.394,-1.672 -0.679,-0.219 -0.867,-1.481 -0.867,-1.481 0.727,0.535 2.082,0.977 3.074,1.153 z"
           style="fill:#80c0cd;fill-opacity:1;fill-rule:evenodd;stroke:#80c0cd;stroke-width:0.425197;stroke-linecap:butt;stroke-linejoin:miter;stroke-miterlimit:4;stroke-dasharray:none;stroke-opacity:1"
           id="path1082" />
      </g>
      <g
         id="g1084">
        <path
           d="m 267.707,60.523 5.117,6.098"
           style="fill:none;stroke:#000000;stroke-width:0.637795;stroke-linecap:round;stroke-linejoin:round;stroke-miterlimit:2.8;stroke-dasharray:none;stroke-opacity:1"
           id="path1086" />
      </g>
      <g
         id="g1088">
        <path
           d="m 274.055,68.086 c -0.86,-0.527 -2.168,-1.094 -3.067,-1.172 0,0 0.977,-0.82 1.633,-0.539 -0.168,-0.691 0.809,-1.512 0.809,-1.512 -0.078,0.899 0.254,2.285 0.625,3.223 z"
           style="fill:#000000;fill-opacity:1;fill-rule:evenodd;stroke:#000000;stroke-width:0.425197;stroke-linecap:butt;stroke-linejoin:miter;stroke-miterlimit:4;stroke-dasharray:none;stroke-opacity:1"
           id="path1090" />
      </g>
      <g
         id="g1092">
        <path
           d="m 267.707,60.523 6.098,-5.117"
           style="fill:none;stroke:#000000;stroke-width:0.637795;stroke-linecap:round;stroke-linejoin:round;stroke-miterlimit:2.8;stroke-dasharray:none;stroke-opacity:1"
           id="path1094" />
      </g>
      <g
         id="g1096">
        <path
           d="m 275.273,54.176 c -0.531,0.859 -1.097,2.168 -1.175,3.066 0,0 -0.825,-0.976 -0.536,-1.633 -0.695,0.168 -1.515,-0.808 -1.515,-0.808 0.898,0.078 2.285,-0.254 3.226,-0.625 z"
           style="fill:#000000;fill-opacity:1;fill-rule:evenodd;stroke:#000000;stroke-width:0.425197;stroke-linecap:butt;stroke-linejoin:miter;stroke-miterlimit:4;stroke-dasharray:none;stroke-opacity:1"
           id="path1098" />
      </g>
      <g
         id="g1100">
        <path
           d="m 269.18,52.41 c -1.465,-0.023 -2.645,-1.215 -2.637,-2.68 0.004,-1.464 1.191,-2.648 2.656,-2.656 1.461,-0.008 2.66,1.168 2.676,2.633 0.02,1.465 -1.145,2.672 -2.609,2.699"
           style="fill:#ffffff;fill-opacity:1;fill-rule:nonzero;stroke:#c08711;stroke-width:0.637796;stroke-linecap:round;stroke-linejoin:round;stroke-miterlimit:2.8;stroke-dasharray:none;stroke-opacity:1"
           id="path1102" />
      </g>
      <g
         id="g1104">
        <path
           d="m 293.484,59.891 c -1.464,-0.02 -2.64,-1.211 -2.636,-2.676 0.004,-1.469 1.191,-2.653 2.656,-2.66 1.465,-0.004 2.66,1.172 2.676,2.633 0.019,1.464 -1.145,2.671 -2.61,2.703"
           style="fill:#ffffff;fill-opacity:1;fill-rule:nonzero;stroke:#c08711;stroke-width:0.637796;stroke-linecap:round;stroke-linejoin:round;stroke-miterlimit:2.8;stroke-dasharray:none;stroke-opacity:1"
           id="path1106" />
      </g>
      <g
         id="g1108">
        <path
           d="m 283.699,71.199 c -1.461,-0.019 -2.637,-1.215 -2.633,-2.679 0.008,-1.465 1.192,-2.649 2.657,-2.657 1.465,-0.008 2.66,1.168 2.679,2.633 0.016,1.465 -1.148,2.672 -2.613,2.699"
           style="fill:#ffffff;fill-opacity:1;fill-rule:nonzero;stroke:#c08711;stroke-width:0.637796;stroke-linecap:round;stroke-linejoin:round;stroke-miterlimit:2.8;stroke-dasharray:none;stroke-opacity:1"
           id="path1110" />
      </g>
      <g
         id="g1112">
        <path
           d="m 257.551,55.766 c -1.465,-0.016 -2.641,-1.211 -2.633,-2.676 0.004,-1.465 1.187,-2.649 2.652,-2.656 1.465,-0.012 2.66,1.168 2.68,2.632 0.016,1.465 -1.145,2.672 -2.609,2.7"
           style="fill:#ffffff;fill-opacity:1;fill-rule:nonzero;stroke:#c08711;stroke-width:0.637796;stroke-linecap:round;stroke-linejoin:round;stroke-miterlimit:2.8;stroke-dasharray:none;stroke-opacity:1"
           id="path1114" />
      </g>
      <g
         id="g1116">
        <path
           d="m 280.805,49.422 c -1.465,-0.016 -2.641,-1.211 -2.637,-2.676 0.004,-1.465 1.191,-2.652 2.656,-2.656 1.465,-0.008 2.66,1.168 2.68,2.633 0.016,1.465 -1.149,2.668 -2.613,2.699"
           style="fill:#ffffff;fill-opacity:1;fill-rule:nonzero;stroke:#c08711;stroke-width:0.637796;stroke-linecap:round;stroke-linejoin:round;stroke-miterlimit:2.8;stroke-dasharray:none;stroke-opacity:1"
           id="path1118" />
      </g>
      <g
         id="g1120">
        <path
           d="m 267.707,60.523 v 47.266"
           style="fill:none;stroke:#f58e8e;stroke-width:0.637795;stroke-linecap:round;stroke-linejoin:round;stroke-miterlimit:2.8;stroke-dasharray:none;stroke-opacity:1"
           id="path1122" />
      </g>
      <g
         id="g1124">
        <path
           d="m 267.707,85.117 c -0.32,-0.957 -0.957,-2.234 -1.594,-2.871 0,0 1.274,0 1.594,0.637 0.32,-0.637 1.594,-0.637 1.594,-0.637 -0.637,0.637 -1.274,1.914 -1.594,2.871 z"
           style="fill:#f58e8e;fill-opacity:1;fill-rule:evenodd;stroke:#f58e8e;stroke-width:0.425197;stroke-linecap:butt;stroke-linejoin:miter;stroke-miterlimit:4;stroke-dasharray:none;stroke-opacity:1"
           id="path1126" />
      </g>
      <g
         id="g1128">
        <path
           d="m 107.633,22.02 h 12.476"
           style="fill:none;stroke:#f58e8e;stroke-width:0.6375;stroke-linecap:round;stroke-linejoin:round;stroke-miterlimit:2.8;stroke-dasharray:none;stroke-opacity:1"
           id="path1130" />
      </g>
      <path
         d="M 51,41.844 H 74.23 V 57.977 H 51 Z"
         style="fill:#fffbee;fill-opacity:1;fill-rule:nonzero;stroke:none"
         id="path1132" />
      <g
         id="g1134">
        <path
           d="m 116.137,22.031 c -0.957,0.321 -2.235,0.957 -2.871,1.594 0,0 0,-1.273 0.636,-1.594 -0.636,-0.32 -0.636,-1.593 -0.636,-1.593 0.636,0.636 1.914,1.273 2.871,1.593 z"
           style="fill:#f58e8e;fill-opacity:1;fill-rule:evenodd;stroke:#f58e8e;stroke-width:0.425197;stroke-linecap:butt;stroke-linejoin:miter;stroke-miterlimit:4;stroke-dasharray:none;stroke-opacity:1"
           id="path1136" />
      </g>
      <g
         id="g1138">
        <path
           d="M 228.73,36.398 V 96.812"
           style="fill:none;stroke:#949494;stroke-width:0.499327;stroke-linecap:round;stroke-linejoin:round;stroke-miterlimit:2.8;stroke-dasharray:1.49798, 1.49798;stroke-dashoffset:0;stroke-opacity:1"
           id="path1140" />
      </g>
      <text
         transform="translate(56.775314,46.011667)"
         style="font-variant:normal;font-weight:normal;font-size:6.00001px;font-family:'Times New Roman';-inkscape-font-specification:TimesNewRomanPSMT;writing-mode:lr-tb;fill:#000000;fill-opacity:1;fill-rule:nonzero;stroke:none"
         id="text1150"><tspan
           x="0 1.6669941 4.6669974 7.3300867 9.9751759"
           y="0"
           sodipodi:role="line"
           id="tspan1142">local</tspan><tspan
           x="-5.8330207 -4.1660266 -2.1679776 0.49511158 3.495115 5.8300786 7.8281279 10.828132 12.82618"
           y="7.517139"
           sodipodi:role="line"
           id="tspan1144">transform</tspan><tspan
           x="-16.841059 -13.841056 -10.841053 -9.1740589 -7.674057 -4.6740532 -3.0070591 -0.67209548 0.99489868 2.6618929 5.6618962 8.6618996 11.661903 13.328897 15.663861 18.663864 21.326954 24.326958 25.993952"
           y="65.654175"
           sodipodi:role="line"
           id="tspan1146">not distinguishable</tspan><tspan
           x="153.49628 156.49628 158.16327 160.49825 162.16524 163.83223 166.83223 169.83223 172.83223 174.49924 176.8342 179.8342 182.49728 185.49728 187.16429"
           y="65.755287"
           sodipodi:role="line"
           id="tspan1148">distinguishable</tspan></text>
      <g
         id="g1152">
        <path
           d="m 50.055,58.535 c 14.175,-5.668 25.511,0 25.511,0"
           style="fill:none;stroke:#000000;stroke-width:0.637795;stroke-linecap:round;stroke-linejoin:round;stroke-miterlimit:2.8;stroke-dasharray:none;stroke-opacity:1"
           id="path1154" />
      </g>
      <path
         d="m 216.922,41.805 h 23.227 v 16.133 h -23.227 z"
         style="fill:#fffbee;fill-opacity:1;fill-rule:nonzero;stroke:none"
         id="path1156" />
      <g
         id="g1158">
        <path
           d="M 77.281,59.391 C 76.285,59.25 74.855,59.25 74,59.535 c 0,0 0.574,-1.14 1.285,-1.14 -0.43,-0.571 0.145,-1.711 0.145,-1.711 0.281,0.855 1.136,1.996 1.851,2.707 z"
           style="fill:#000000;fill-opacity:1;fill-rule:evenodd;stroke:#000000;stroke-width:0.425197;stroke-linecap:butt;stroke-linejoin:miter;stroke-miterlimit:4;stroke-dasharray:none;stroke-opacity:1"
           id="path1160" />
      </g>
      <g
         id="g1162">
        <path
           d="m 48.68,59.391 c 0.996,-0.141 2.425,-0.141 3.281,0.144 0,0 -0.574,-1.14 -1.285,-1.14 0.429,-0.571 -0.145,-1.711 -0.145,-1.711 -0.281,0.855 -1.136,1.996 -1.851,2.707 z"
           style="fill:#000000;fill-opacity:1;fill-rule:evenodd;stroke:#000000;stroke-width:0.425197;stroke-linecap:butt;stroke-linejoin:miter;stroke-miterlimit:4;stroke-dasharray:none;stroke-opacity:1"
           id="path1164" />
      </g>
      <text
         transform="translate(222.69466,45.972094)"
         style="font-variant:normal;font-weight:normal;font-size:6.00001px;font-family:'Times New Roman';-inkscape-font-specification:TimesNewRomanPSMT;writing-mode:lr-tb;fill:#000000;fill-opacity:1;fill-rule:nonzero;stroke:none"
         id="text1170"><tspan
           x="0 1.6669941 4.6669974 7.3300867 9.9751759"
           y="0"
           sodipodi:role="line"
           id="tspan1166">local</tspan><tspan
           x="-5.8330326 -4.1660385 -2.1679895 0.49509957 3.4951031 5.8300667 7.8281159 10.828119 12.826169"
           y="7.517139"
           sodipodi:role="line"
           id="tspan1168">transform</tspan></text>
      <text
         transform="translate(121.61273,7.027366)"
         style="font-variant:normal;font-weight:normal;font-size:6px;font-family:'Times New Roman';-inkscape-font-specification:TimesNewRomanPSMT;writing-mode:lr-tb;fill:#000000;fill-opacity:1;fill-rule:nonzero;stroke:none"
         id="text1176"><tspan
           x="0 2.3349609 4.9980469 7.9980469 9.6650391 11.165039 14.165039 16.828125 19.828125 24.495117 27.158203 28.825195 30.823242 32.490234 35.15332 36.65332 41.320312 43.983398 46.318359 48.65332 51.316406 54.316406"
           y="0"
           sodipodi:role="line"
           id="tspan1172">sent geometric message</tspan><tspan
           x="71.006996 75.673988 78.337074 80.672035 83.006996 85.670082 88.670082 91.333168 92.833168 97.166176 98.833168 100.50016 103.50016"
           y="15.927936"
           sodipodi:role="line"
           id="tspan1174">message with</tspan></text>
      <text
         transform="translate(226.61289,22.955301)"
         style="font-variant:normal;font-weight:normal;font-size:6px;font-family:'Times New Roman';-inkscape-font-specification:TimesNewRomanPSMT;writing-mode:lr-tb;fill:#34c45e;fill-opacity:1;fill-rule:nonzero;stroke:none"
         id="text1180"><tspan
           x="0 1.9980469 3.9960938 6.6591797 11.326172 13.989258 15.987305 17.654297 20.654297 22.652344 24.650391 26.648438 29.311523 33.978516"
           y="0"
           sodipodi:role="line"
           id="tspan1178">frame-to-frame</tspan></text>
      <text
         transform="translate(264.75449,22.955301)"
         style="font-variant:normal;font-weight:normal;font-size:6px;font-family:'Times New Roman';-inkscape-font-specification:TimesNewRomanPSMT;writing-mode:lr-tb;fill:#000000;fill-opacity:1;fill-rule:nonzero;stroke:none"
         id="text1190"><tspan
           x="0 1.6669922 3.6650391 6.328125 9.328125 11.663086 13.330078 14.99707 16.664062 19.664062 22.664062 -258.75479 -254.08778 -251.4247 -249.08974 -246.75478 -244.09169 -241.09169 -238.4286"
           y="0"
           sodipodi:role="line"
           id="tspan1182">transition:message:</tspan><tspan
           x="-143.14175 -141.14371 -138.48062 -135.81754 -133.15445 -131.48746 -128.48746 -125.82438 -122.82438 -121.32438 -118.32438 -115.66129 -112.66129 -107.9943 -105.33121 -103.66422 -101.66618 -99.999184 -97.336098 -95.836098 -91.169106 -88.50602 -86.171059 -83.836098 -81.173012 -78.173012"
           y="-8.1263037"
           sodipodi:role="line"
           id="tspan1184">received geometric message</tspan><tspan
           x="-143.14175 -138.47476 -135.81168 -133.47672 -131.14175 -128.47867 -125.47868 -122.81559 -121.31559 -118.31559 -115.6525 -113.31754 -110.98258 -109.31559 -106.31559 -103.31559 -101.81559 -99.152504 -96.152504 -93.152504"
           y="0.33716401"
           sodipodi:role="line"
           id="tspan1186">message passing edge</tspan><tspan
           x="-143.14175 -140.14175 -137.14175 -134.14175 -131.47867"
           y="8.8006201"
           sodipodi:role="line"
           id="tspan1188">nodes</tspan></text>
      <g
         id="g1192">
        <path
           d="m 215.973,58.496 c 14.175,-5.668 25.511,0 25.511,0"
           style="fill:none;stroke:#000000;stroke-width:0.637795;stroke-linecap:round;stroke-linejoin:round;stroke-miterlimit:2.8;stroke-dasharray:none;stroke-opacity:1"
           id="path1194" />
      </g>
      <g
         id="g1196">
        <path
           d="m 243.199,59.348 c -0.996,-0.137 -2.426,-0.141 -3.281,0.148 0,0 0.574,-1.141 1.285,-1.141 -0.43,-0.57 0.145,-1.714 0.145,-1.714 0.281,0.855 1.136,2 1.851,2.707 z"
           style="fill:#000000;fill-opacity:1;fill-rule:evenodd;stroke:#000000;stroke-width:0.425197;stroke-linecap:butt;stroke-linejoin:miter;stroke-miterlimit:4;stroke-dasharray:none;stroke-opacity:1"
           id="path1198" />
      </g>
      <g
         id="g1200">
        <path
           d="m 35.113,89.152 c -0.218,0.981 -0.332,2.403 -0.117,3.282 0,0 -1.09,-0.661 -1.035,-1.375 -0.602,0.386 -1.695,-0.274 -1.695,-0.274 0.875,-0.219 2.078,-0.98 2.847,-1.633 z"
           style="fill:#80c0cd;fill-opacity:1;fill-rule:evenodd;stroke:#80c0cd;stroke-width:0.425197;stroke-linecap:butt;stroke-linejoin:miter;stroke-miterlimit:4;stroke-dasharray:none;stroke-opacity:1"
           id="path1202" />
      </g>
      <g
         id="g1204">
        <path
           d="m 23.695,108.078 7.961,-0.058"
           style="fill:none;stroke:#000000;stroke-width:0.637795;stroke-linecap:round;stroke-linejoin:round;stroke-miterlimit:2.8;stroke-dasharray:none;stroke-opacity:1"
           id="path1206" />
      </g>
      <g
         id="g1208">
        <path
           d="m 33.566,108.008 c -0.953,0.328 -2.222,0.972 -2.859,1.617 0,0 -0.008,-1.281 0.633,-1.598 -0.645,-0.32 -0.652,-1.593 -0.652,-1.593 0.644,0.636 1.921,1.261 2.878,1.574 z"
           style="fill:#000000;fill-opacity:1;fill-rule:evenodd;stroke:#000000;stroke-width:0.425197;stroke-linecap:butt;stroke-linejoin:miter;stroke-miterlimit:4;stroke-dasharray:none;stroke-opacity:1"
           id="path1210" />
      </g>
      <g
         id="g1212">
        <path
           d="m 23.695,108.078 -0.054,-7.961"
           style="fill:none;stroke:#000000;stroke-width:0.637795;stroke-linecap:round;stroke-linejoin:round;stroke-miterlimit:2.8;stroke-dasharray:none;stroke-opacity:1"
           id="path1214" />
      </g>
      <g
         id="g1216">
        <path
           d="M 23.695,108.078 34.125,90.793"
           style="fill:none;stroke:#80c0cd;stroke-width:0.637795;stroke-linecap:round;stroke-linejoin:round;stroke-miterlimit:2.8;stroke-dasharray:none;stroke-opacity:1"
           id="path1218" />
      </g>
      <g
         id="g1220">
        <path
           d="m 23.625,98.199 c 0.328,0.957 0.977,2.227 1.617,2.863 0,0 -1.277,0.004 -1.597,-0.628 -0.317,0.64 -1.59,0.648 -1.59,0.648 0.633,-0.644 1.261,-1.922 1.57,-2.883 z"
           style="fill:#000000;fill-opacity:1;fill-rule:evenodd;stroke:#000000;stroke-width:0.425197;stroke-linecap:butt;stroke-linejoin:miter;stroke-miterlimit:4;stroke-dasharray:none;stroke-opacity:1"
           id="path1222" />
      </g>
      <g
         id="g1224">
        <path
           d="m 113.066,89.152 c -0.218,0.981 -0.332,2.403 -0.117,3.282 0,0 -1.09,-0.661 -1.035,-1.375 -0.602,0.386 -1.695,-0.274 -1.695,-0.274 0.875,-0.219 2.078,-0.98 2.847,-1.633 z"
           style="fill:#80c0cd;fill-opacity:1;fill-rule:evenodd;stroke:#80c0cd;stroke-width:0.425197;stroke-linecap:butt;stroke-linejoin:miter;stroke-miterlimit:4;stroke-dasharray:none;stroke-opacity:1"
           id="path1226" />
      </g>
      <g
         id="g1228">
        <path
           d="m 101.648,108.078 7.961,-0.055"
           style="fill:none;stroke:#000000;stroke-width:0.637795;stroke-linecap:round;stroke-linejoin:round;stroke-miterlimit:2.8;stroke-dasharray:none;stroke-opacity:1"
           id="path1230" />
      </g>
      <g
         id="g1232">
        <path
           d="m 111.52,108.008 c -0.95,0.324 -2.219,0.976 -2.86,1.617 0,0 -0.008,-1.281 0.633,-1.598 -0.645,-0.32 -0.656,-1.593 -0.656,-1.593 0.648,0.636 1.925,1.261 2.883,1.574 z"
           style="fill:#000000;fill-opacity:1;fill-rule:evenodd;stroke:#000000;stroke-width:0.425197;stroke-linecap:butt;stroke-linejoin:miter;stroke-miterlimit:4;stroke-dasharray:none;stroke-opacity:1"
           id="path1234" />
      </g>
      <g
         id="g1236">
        <path
           d="m 101.648,108.078 -0.054,-7.961"
           style="fill:none;stroke:#000000;stroke-width:0.637795;stroke-linecap:round;stroke-linejoin:round;stroke-miterlimit:2.8;stroke-dasharray:none;stroke-opacity:1"
           id="path1238" />
      </g>
      <g
         id="g1240">
        <path
           d="m 101.648,108.078 10.43,-17.285"
           style="fill:none;stroke:#80c0cd;stroke-width:0.637795;stroke-linecap:round;stroke-linejoin:round;stroke-miterlimit:2.8;stroke-dasharray:none;stroke-opacity:1"
           id="path1242" />
      </g>
      <g
         id="g1244">
        <path
           d="m 101.582,98.199 c 0.324,0.957 0.973,2.227 1.613,2.863 0,0 -1.277,0.008 -1.597,-0.632 -0.317,0.644 -1.59,0.652 -1.59,0.652 0.633,-0.644 1.262,-1.922 1.574,-2.883 z"
           style="fill:#000000;fill-opacity:1;fill-rule:evenodd;stroke:#000000;stroke-width:0.425197;stroke-linecap:butt;stroke-linejoin:miter;stroke-miterlimit:4;stroke-dasharray:none;stroke-opacity:1"
           id="path1246" />
      </g>
      <g
         id="g1248">
        <path
           d="m 189.754,107.789 7.961,-0.055"
           style="fill:none;stroke:#000000;stroke-width:0.637795;stroke-linecap:round;stroke-linejoin:round;stroke-miterlimit:2.8;stroke-dasharray:none;stroke-opacity:1"
           id="path1250" />
      </g>
      <g
         id="g1252">
        <path
           d="m 199.625,107.719 c -0.949,0.324 -2.219,0.976 -2.859,1.617 0,0 -0.008,-1.281 0.632,-1.598 -0.644,-0.32 -0.656,-1.59 -0.656,-1.59 0.649,0.633 1.926,1.258 2.883,1.571 z"
           style="fill:#000000;fill-opacity:1;fill-rule:evenodd;stroke:#000000;stroke-width:0.425197;stroke-linecap:butt;stroke-linejoin:miter;stroke-miterlimit:4;stroke-dasharray:none;stroke-opacity:1"
           id="path1254" />
      </g>
      <g
         id="g1256">
        <path
           d="m 189.754,107.789 -0.055,-7.961"
           style="fill:none;stroke:#000000;stroke-width:0.637795;stroke-linecap:round;stroke-linejoin:round;stroke-miterlimit:2.8;stroke-dasharray:none;stroke-opacity:1"
           id="path1258" />
      </g>
      <g
         id="g1260">
        <path
           d="m 189.688,97.91 c 0.324,0.957 0.972,2.227 1.613,2.863 0,0 -1.278,0.008 -1.598,-0.628 -0.316,0.64 -1.59,0.648 -1.59,0.648 0.633,-0.645 1.262,-1.922 1.575,-2.883 z"
           style="fill:#000000;fill-opacity:1;fill-rule:evenodd;stroke:#000000;stroke-width:0.425197;stroke-linecap:butt;stroke-linejoin:miter;stroke-miterlimit:4;stroke-dasharray:none;stroke-opacity:1"
           id="path1262" />
      </g>
      <g
         id="g1264">
        <path
           d="m 214.598,59.352 c 0.996,-0.141 2.425,-0.141 3.281,0.144 0,0 -0.574,-1.141 -1.285,-1.141 0.429,-0.57 -0.145,-1.71 -0.145,-1.71 -0.281,0.855 -1.137,1.996 -1.851,2.707 z"
           style="fill:#000000;fill-opacity:1;fill-rule:evenodd;stroke:#000000;stroke-width:0.425197;stroke-linecap:butt;stroke-linejoin:miter;stroke-miterlimit:4;stroke-dasharray:none;stroke-opacity:1"
           id="path1266" />
      </g>
      <path
         d="m 65.156,101.492 c 0.11,0 0.282,0 0.282,-0.187 0,-0.172 -0.204,-0.172 -0.313,-0.172 h -5.016 c -0.125,0 -0.312,0 -0.312,0.172 0,0.187 0.156,0.187 0.281,0.187 z m -0.031,1.688 c 0.109,0 0.313,0 0.313,-0.172 0,-0.188 -0.172,-0.188 -0.282,-0.188 h -5.078 c -0.125,0 -0.281,0 -0.281,0.188 0,0.172 0.187,0.172 0.312,0.172 z"
         style="fill:#000000;fill-opacity:1;fill-rule:nonzero;stroke:none"
         id="path1268" />
      <path
         d="m 230.785,99.438 c 0.063,-0.11 0.063,-0.126 0.063,-0.157 0,-0.093 -0.078,-0.187 -0.188,-0.187 -0.094,0 -0.14,0.062 -0.203,0.172 l -3.781,6.906 c -0.063,0.109 -0.063,0.125 -0.063,0.156 0,0.094 0.078,0.188 0.188,0.188 0.094,0 0.14,-0.063 0.187,-0.172 z"
         style="fill:#000000;fill-opacity:1;fill-rule:nonzero;stroke:none"
         id="path1270" />
      <path
         d="m 231.27,102.141 c 0.109,0 0.281,0 0.281,-0.188 0,-0.172 -0.203,-0.172 -0.313,-0.172 h -5.015 c -0.125,0 -0.313,0 -0.313,0.172 0,0.188 0.156,0.188 0.281,0.188 z m -0.032,1.687 c 0.11,0 0.313,0 0.313,-0.172 0,-0.187 -0.172,-0.187 -0.281,-0.187 h -5.079 c -0.125,0 -0.281,0 -0.281,0.187 0,0.172 0.188,0.172 0.313,0.172 z"
         style="fill:#000000;fill-opacity:1;fill-rule:nonzero;stroke:none"
         id="path1272" />
      <path
         d="m 19.926,107.953 c 0,-0.137 -0.102,-0.25 -0.25,-0.25 -0.164,0 -0.352,0.16 -0.352,0.348 0,0.14 0.102,0.238 0.25,0.238 0.164,0 0.352,-0.148 0.352,-0.336 z m -0.926,2.336 -0.352,0.875 c -0.035,0.102 -0.062,0.176 -0.062,0.289 0,0.313 0.238,0.535 0.578,0.535 0.625,0 0.887,-0.886 0.887,-0.972 0,-0.063 -0.051,-0.09 -0.102,-0.09 -0.074,0 -0.086,0.051 -0.113,0.113 -0.137,0.512 -0.398,0.777 -0.66,0.777 -0.074,0 -0.153,-0.039 -0.153,-0.203 0,-0.16 0.051,-0.273 0.125,-0.472 0.063,-0.164 0.125,-0.34 0.204,-0.512 l 0.199,-0.516 c 0.051,-0.148 0.137,-0.347 0.137,-0.461 0,-0.312 -0.262,-0.539 -0.586,-0.539 -0.614,0 -0.891,0.891 -0.891,0.977 0,0.062 0.051,0.086 0.101,0.086 0.086,0 0.086,-0.035 0.114,-0.098 0.176,-0.613 0.461,-0.789 0.66,-0.789 0.09,0 0.152,0.039 0.152,0.215 0,0.062 -0.011,0.148 -0.074,0.348 z"
         style="fill:#000000;fill-opacity:1;fill-rule:nonzero;stroke:none"
         id="path1274" />
      <path
         d="m 20.832,62.766 c 0,-0.125 -0.098,-0.25 -0.25,-0.25 -0.199,0 -0.359,0.187 -0.359,0.351 0,0.125 0.097,0.235 0.25,0.235 0.187,0 0.359,-0.172 0.359,-0.336 z m -1.336,4.289 c -0.101,0.398 -0.414,0.812 -0.801,0.812 -0.097,0 -0.199,-0.027 -0.211,-0.039 0.2,-0.086 0.223,-0.262 0.223,-0.324 0,-0.152 -0.109,-0.238 -0.25,-0.238 -0.172,0 -0.348,0.164 -0.348,0.375 0,0.238 0.239,0.398 0.598,0.398 0.391,0 1.09,-0.234 1.277,-1.012 l 0.575,-2.273 c 0.023,-0.074 0.039,-0.125 0.039,-0.227 0,-0.347 -0.289,-0.597 -0.653,-0.597 -0.675,0 -1.074,0.886 -1.074,0.972 0,0.063 0.051,0.09 0.102,0.09 0.062,0 0.074,-0.027 0.109,-0.113 0.203,-0.449 0.527,-0.777 0.84,-0.777 0.137,0 0.211,0.101 0.211,0.3 0,0.09 -0.012,0.188 -0.035,0.278 z"
         style="fill:#000000;fill-opacity:1;fill-rule:nonzero;stroke:none"
         id="path1276" />
      <path
         d="m 97.926,107.953 c 0,-0.137 -0.102,-0.25 -0.25,-0.25 -0.164,0 -0.352,0.16 -0.352,0.348 0,0.14 0.102,0.238 0.25,0.238 0.164,0 0.352,-0.148 0.352,-0.336 z m -0.926,2.336 -0.352,0.875 c -0.035,0.102 -0.062,0.176 -0.062,0.289 0,0.313 0.238,0.535 0.578,0.535 0.625,0 0.887,-0.886 0.887,-0.972 0,-0.063 -0.051,-0.09 -0.102,-0.09 -0.074,0 -0.086,0.051 -0.113,0.113 -0.137,0.512 -0.398,0.777 -0.66,0.777 -0.074,0 -0.153,-0.039 -0.153,-0.203 0,-0.16 0.051,-0.273 0.125,-0.472 0.063,-0.164 0.125,-0.34 0.204,-0.512 l 0.199,-0.516 c 0.051,-0.148 0.137,-0.347 0.137,-0.461 0,-0.312 -0.262,-0.539 -0.586,-0.539 -0.614,0 -0.891,0.891 -0.891,0.977 0,0.062 0.051,0.086 0.101,0.086 0.086,0 0.086,-0.035 0.114,-0.098 0.176,-0.613 0.461,-0.789 0.66,-0.789 0.09,0 0.152,0.039 0.152,0.215 0,0.062 -0.011,0.148 -0.074,0.348 z"
         style="fill:#000000;fill-opacity:1;fill-rule:nonzero;stroke:none"
         id="path1278" />
      <path
         d="m 98.832,62.766 c 0,-0.125 -0.098,-0.25 -0.25,-0.25 -0.199,0 -0.359,0.187 -0.359,0.351 0,0.125 0.097,0.235 0.25,0.235 0.187,0 0.359,-0.172 0.359,-0.336 z m -1.336,4.289 c -0.101,0.398 -0.414,0.812 -0.801,0.812 -0.097,0 -0.199,-0.027 -0.211,-0.039 0.2,-0.086 0.223,-0.262 0.223,-0.324 0,-0.152 -0.109,-0.238 -0.25,-0.238 -0.172,0 -0.348,0.164 -0.348,0.375 0,0.238 0.239,0.398 0.598,0.398 0.391,0 1.09,-0.234 1.277,-1.012 l 0.575,-2.273 c 0.023,-0.074 0.039,-0.125 0.039,-0.227 0,-0.347 -0.289,-0.597 -0.653,-0.597 -0.675,0 -1.074,0.886 -1.074,0.972 0,0.063 0.051,0.09 0.102,0.09 0.062,0 0.074,-0.027 0.109,-0.113 0.203,-0.449 0.527,-0.777 0.84,-0.777 0.137,0 0.211,0.101 0.211,0.3 0,0.09 -0.012,0.188 -0.035,0.278 z"
         style="fill:#000000;fill-opacity:1;fill-rule:nonzero;stroke:none"
         id="path1280" />
      <path
         d="m 186.426,107.953 c 0,-0.137 -0.102,-0.25 -0.25,-0.25 -0.164,0 -0.352,0.16 -0.352,0.348 0,0.14 0.102,0.238 0.25,0.238 0.164,0 0.352,-0.148 0.352,-0.336 z m -0.926,2.336 -0.352,0.875 c -0.035,0.102 -0.062,0.176 -0.062,0.289 0,0.313 0.238,0.535 0.578,0.535 0.625,0 0.887,-0.886 0.887,-0.972 0,-0.063 -0.051,-0.09 -0.102,-0.09 -0.074,0 -0.086,0.051 -0.113,0.113 -0.137,0.512 -0.398,0.777 -0.66,0.777 -0.074,0 -0.153,-0.039 -0.153,-0.203 0,-0.16 0.051,-0.273 0.125,-0.472 0.063,-0.164 0.125,-0.34 0.204,-0.512 l 0.199,-0.516 c 0.051,-0.148 0.137,-0.347 0.137,-0.461 0,-0.312 -0.262,-0.539 -0.586,-0.539 -0.614,0 -0.891,0.891 -0.891,0.977 0,0.062 0.051,0.086 0.101,0.086 0.086,0 0.086,-0.035 0.114,-0.098 0.176,-0.613 0.461,-0.789 0.66,-0.789 0.09,0 0.152,0.039 0.152,0.215 0,0.062 -0.011,0.148 -0.074,0.348 z"
         style="fill:#000000;fill-opacity:1;fill-rule:nonzero;stroke:none"
         id="path1282" />
      <path
         d="m 187.332,62.766 c 0,-0.125 -0.098,-0.25 -0.25,-0.25 -0.199,0 -0.359,0.187 -0.359,0.351 0,0.125 0.097,0.235 0.25,0.235 0.187,0 0.359,-0.172 0.359,-0.336 z m -1.336,4.289 c -0.101,0.398 -0.414,0.812 -0.801,0.812 -0.097,0 -0.199,-0.027 -0.211,-0.039 0.2,-0.086 0.223,-0.262 0.223,-0.324 0,-0.152 -0.109,-0.238 -0.25,-0.238 -0.172,0 -0.348,0.164 -0.348,0.375 0,0.238 0.239,0.398 0.598,0.398 0.391,0 1.09,-0.234 1.277,-1.012 l 0.575,-2.273 c 0.023,-0.074 0.039,-0.125 0.039,-0.227 0,-0.347 -0.289,-0.597 -0.653,-0.597 -0.675,0 -1.074,0.886 -1.074,0.972 0,0.063 0.051,0.09 0.102,0.09 0.062,0 0.074,-0.027 0.109,-0.113 0.203,-0.449 0.527,-0.777 0.84,-0.777 0.137,0 0.211,0.101 0.211,0.3 0,0.09 -0.012,0.188 -0.035,0.278 z"
         style="fill:#000000;fill-opacity:1;fill-rule:nonzero;stroke:none"
         id="path1284" />
      <path
         d="m 264.426,107.953 c 0,-0.137 -0.102,-0.25 -0.25,-0.25 -0.164,0 -0.352,0.16 -0.352,0.348 0,0.14 0.102,0.238 0.25,0.238 0.164,0 0.352,-0.148 0.352,-0.336 z m -0.926,2.336 -0.352,0.875 c -0.035,0.102 -0.062,0.176 -0.062,0.289 0,0.313 0.238,0.535 0.578,0.535 0.625,0 0.887,-0.886 0.887,-0.972 0,-0.063 -0.051,-0.09 -0.102,-0.09 -0.074,0 -0.086,0.051 -0.113,0.113 -0.137,0.512 -0.398,0.777 -0.66,0.777 -0.074,0 -0.153,-0.039 -0.153,-0.203 0,-0.16 0.051,-0.273 0.125,-0.472 0.063,-0.164 0.125,-0.34 0.204,-0.512 l 0.199,-0.516 c 0.051,-0.148 0.137,-0.347 0.137,-0.461 0,-0.312 -0.262,-0.539 -0.586,-0.539 -0.614,0 -0.891,0.891 -0.891,0.977 0,0.062 0.051,0.086 0.101,0.086 0.086,0 0.086,-0.035 0.114,-0.098 0.176,-0.613 0.461,-0.789 0.66,-0.789 0.09,0 0.152,0.039 0.152,0.215 0,0.062 -0.011,0.148 -0.074,0.348 z"
         style="fill:#000000;fill-opacity:1;fill-rule:nonzero;stroke:none"
         id="path1286" />
      <path
         d="m 265.332,62.766 c 0,-0.125 -0.098,-0.25 -0.25,-0.25 -0.199,0 -0.359,0.187 -0.359,0.351 0,0.125 0.097,0.235 0.25,0.235 0.187,0 0.359,-0.172 0.359,-0.336 z m -1.336,4.289 c -0.101,0.398 -0.414,0.812 -0.801,0.812 -0.097,0 -0.199,-0.027 -0.211,-0.039 0.2,-0.086 0.223,-0.262 0.223,-0.324 0,-0.152 -0.109,-0.238 -0.25,-0.238 -0.172,0 -0.348,0.164 -0.348,0.375 0,0.238 0.239,0.398 0.598,0.398 0.391,0 1.09,-0.234 1.277,-1.012 l 0.575,-2.273 c 0.023,-0.074 0.039,-0.125 0.039,-0.227 0,-0.347 -0.289,-0.597 -0.653,-0.597 -0.675,0 -1.074,0.886 -1.074,0.972 0,0.063 0.051,0.09 0.102,0.09 0.062,0 0.074,-0.027 0.109,-0.113 0.203,-0.449 0.527,-0.777 0.84,-0.777 0.137,0 0.211,0.101 0.211,0.3 0,0.09 -0.012,0.188 -0.035,0.278 z"
         style="fill:#000000;fill-opacity:1;fill-rule:nonzero;stroke:none"
         id="path1288" />
      <g
         id="g1290">
        <path
           d="m 267.707,107.789 7.961,-0.055"
           style="fill:none;stroke:#000000;stroke-width:0.637795;stroke-linecap:round;stroke-linejoin:round;stroke-miterlimit:2.8;stroke-dasharray:none;stroke-opacity:1"
           id="path1292" />
      </g>
      <g
         id="g1294">
        <path
           d="m 277.578,107.719 c -0.949,0.324 -2.219,0.972 -2.859,1.617 0,0 -0.008,-1.281 0.633,-1.598 -0.645,-0.32 -0.657,-1.593 -0.657,-1.593 0.649,0.636 1.926,1.261 2.883,1.574 z"
           style="fill:#000000;fill-opacity:1;fill-rule:evenodd;stroke:#000000;stroke-width:0.425197;stroke-linecap:butt;stroke-linejoin:miter;stroke-miterlimit:4;stroke-dasharray:none;stroke-opacity:1"
           id="path1296" />
      </g>
      <g
         id="g1298">
        <path
           d="m 267.707,107.789 -0.055,-7.965"
           style="fill:none;stroke:#000000;stroke-width:0.637795;stroke-linecap:round;stroke-linejoin:round;stroke-miterlimit:2.8;stroke-dasharray:none;stroke-opacity:1"
           id="path1300" />
      </g>
      <g
         id="g1302">
        <path
           d="m 267.641,97.91 c 0.324,0.957 0.972,2.227 1.613,2.863 0,0 -1.274,0.008 -1.598,-0.632 -0.312,0.644 -1.59,0.652 -1.59,0.652 0.633,-0.645 1.262,-1.922 1.575,-2.883 z"
           style="fill:#000000;fill-opacity:1;fill-rule:evenodd;stroke:#000000;stroke-width:0.425197;stroke-linecap:butt;stroke-linejoin:miter;stroke-miterlimit:4;stroke-dasharray:none;stroke-opacity:1"
           id="path1304" />
      </g>
      <path
         d="m 8.586,30.078 c 0.027,-0.09 0.09,-0.34 0.102,-0.426 0.023,-0.062 0.062,-0.226 0.074,-0.289 0.011,-0.023 0.226,-0.437 0.5,-0.648 0.215,-0.176 0.426,-0.227 0.613,-0.227 0.227,0 0.363,0.153 0.363,0.438 0,0.152 -0.039,0.301 -0.113,0.59 -0.051,0.16 -0.148,0.586 -0.187,0.761 l -0.102,0.387 c -0.035,0.102 -0.074,0.301 -0.074,0.324 0,0.153 0.125,0.2 0.199,0.2 0.113,0 0.215,-0.075 0.266,-0.149 0.011,-0.039 0.062,-0.262 0.097,-0.387 l 0.137,-0.574 c 0.027,-0.09 0.09,-0.34 0.113,-0.426 0.09,-0.351 0.09,-0.351 0.227,-0.562 0.211,-0.313 0.511,-0.602 0.937,-0.602 0.239,0 0.375,0.137 0.375,0.438 0,0.351 -0.277,1.09 -0.402,1.386 -0.063,0.165 -0.074,0.215 -0.074,0.34 0,0.364 0.301,0.536 0.574,0.536 0.625,0 0.891,-0.887 0.891,-0.973 0,-0.063 -0.063,-0.09 -0.102,-0.09 -0.074,0 -0.086,0.051 -0.113,0.113 -0.149,0.528 -0.41,0.778 -0.66,0.778 -0.102,0 -0.153,-0.063 -0.153,-0.215 0,-0.149 0.051,-0.285 0.114,-0.449 0.101,-0.239 0.374,-0.977 0.374,-1.325 0,-0.488 -0.324,-0.715 -0.789,-0.715 -0.437,0 -0.796,0.227 -1.085,0.626 -0.051,-0.512 -0.461,-0.626 -0.79,-0.626 -0.296,0 -0.687,0.102 -1.035,0.563 -0.051,-0.387 -0.351,-0.563 -0.652,-0.563 -0.223,0 -0.387,0.141 -0.484,0.352 -0.165,0.301 -0.227,0.613 -0.227,0.625 0,0.063 0.051,0.086 0.102,0.086 0.086,0 0.086,-0.023 0.136,-0.199 0.074,-0.313 0.188,-0.688 0.45,-0.688 0.175,0 0.21,0.164 0.21,0.301 0,0.125 -0.035,0.238 -0.086,0.449 -0.011,0.051 -0.113,0.426 -0.136,0.512 l -0.238,0.965 c -0.024,0.097 -0.063,0.25 -0.063,0.273 0,0.153 0.125,0.2 0.211,0.2 0.113,0 0.215,-0.075 0.25,-0.149 C 8.363,31 8.414,30.777 8.438,30.652 Z"
         style="fill:#000000;fill-opacity:1;fill-rule:nonzero;stroke:none"
         id="path1306" />
      <path
         d="m 14.965,29.109 c 0,-0.109 -0.086,-0.187 -0.188,-0.187 -0.136,0 -0.273,0.125 -0.273,0.266 0,0.109 0.086,0.187 0.187,0.187 0.164,0 0.274,-0.141 0.274,-0.266 z m -0.285,1.676 c 0.023,-0.051 0.062,-0.16 0.086,-0.211 0.011,-0.039 0.027,-0.09 0.027,-0.176 0,-0.261 -0.238,-0.414 -0.477,-0.414 -0.488,0 -0.726,0.641 -0.726,0.739 0,0.027 0.027,0.062 0.09,0.062 0.074,0 0.086,-0.023 0.097,-0.062 0.141,-0.461 0.391,-0.575 0.528,-0.575 0.086,0 0.125,0.063 0.125,0.176 0,0.086 -0.028,0.16 -0.039,0.199 l -0.25,0.614 c -0.063,0.136 -0.063,0.148 -0.125,0.312 -0.063,0.137 -0.075,0.199 -0.075,0.285 0,0.239 0.211,0.414 0.477,0.414 0.484,0 0.723,-0.636 0.723,-0.738 0,-0.012 0,-0.074 -0.086,-0.074 -0.075,0 -0.075,0.023 -0.102,0.125 -0.074,0.238 -0.273,0.523 -0.523,0.523 -0.09,0 -0.125,-0.046 -0.125,-0.172 0,-0.089 0.023,-0.164 0.086,-0.312 z"
         style="fill:#000000;fill-opacity:1;fill-rule:nonzero;stroke:none"
         id="path1308" />
      <path
         d="m 17.66,29.109 c 0,-0.136 -0.113,-0.187 -0.199,-0.187 -0.152,0 -0.262,0.152 -0.262,0.266 0,0.097 0.074,0.187 0.188,0.187 0.125,0 0.273,-0.113 0.273,-0.266 z m -1.023,3.203 c -0.09,0.36 -0.375,0.598 -0.653,0.598 -0.011,0 -0.148,0 -0.148,-0.012 0,-0.011 0.012,-0.023 0.012,-0.023 0.074,-0.063 0.113,-0.141 0.113,-0.203 0,-0.16 -0.125,-0.188 -0.199,-0.188 -0.125,0 -0.266,0.102 -0.266,0.278 0,0.261 0.301,0.312 0.488,0.312 0.325,0 0.903,-0.176 1.051,-0.75 l 0.426,-1.715 c 0.012,-0.047 0.023,-0.097 0.023,-0.16 0,-0.277 -0.238,-0.465 -0.55,-0.465 -0.536,0 -0.875,0.653 -0.875,0.739 0,0.027 0.027,0.062 0.089,0.062 0.063,0 0.075,-0.012 0.098,-0.074 0.152,-0.313 0.414,-0.563 0.676,-0.563 0.152,0 0.176,0.114 0.176,0.239 0,0.062 0,0.125 -0.012,0.136 z"
         style="fill:#000000;fill-opacity:1;fill-rule:nonzero;stroke:none"
         id="path1310" />
      <path
         d="m 25.102,29 c 0.086,0 0.226,0 0.226,-0.148 0,-0.137 -0.164,-0.137 -0.25,-0.137 h -4.016 c -0.097,0 -0.25,0 -0.25,0.137 0,0.148 0.126,0.148 0.227,0.148 z m -0.024,1.352 c 0.086,0 0.25,0 0.25,-0.137 0,-0.153 -0.14,-0.153 -0.226,-0.153 h -4.063 c -0.101,0 -0.227,0 -0.227,0.153 0,0.137 0.153,0.137 0.25,0.137 z"
         style="fill:#000000;fill-opacity:1;fill-rule:nonzero;stroke:none"
         id="path1312" />
      <path
         d="m 30.539,26.789 c 0,-0.074 -0.074,-0.086 -0.109,-0.086 -0.078,0 -0.09,0.035 -0.114,0.137 l -0.363,1.461 c -1.125,0.051 -2.039,0.902 -2.039,1.726 0,0.637 0.551,1.137 1.313,1.176 -0.047,0.188 -0.098,0.399 -0.149,0.598 -0.074,0.301 -0.125,0.527 -0.125,0.551 0,0 0,0.074 0.086,0.074 0.09,0 0.09,-0.035 0.125,-0.149 l 0.266,-1.074 c 1.136,-0.051 2.035,-0.891 2.035,-1.726 0,-0.727 -0.637,-1.137 -1.301,-1.165 z m -0.422,1.688 c 0.473,0.039 0.899,0.3 0.899,0.886 0,0.614 -0.438,1.551 -1.539,1.653 z m -0.84,2.55 c -0.211,-0.011 -0.898,-0.113 -0.898,-0.886 0,-0.688 0.512,-1.551 1.523,-1.653 z"
         style="fill:#000000;fill-opacity:1;fill-rule:nonzero;stroke:none"
         id="path1314" />
      <path
         d="m 33.742,32.715 c 0.051,0 0.125,0 0.125,-0.074 0,-0.028 0,-0.028 -0.086,-0.114 -0.875,-0.824 -1.09,-2 -1.09,-2.988 0,-1.836 0.75,-2.699 1.079,-3 0.097,-0.074 0.097,-0.086 0.097,-0.113 0,-0.035 -0.023,-0.074 -0.086,-0.074 -0.101,0 -0.426,0.324 -0.476,0.375 -0.848,0.898 -1.024,2.039 -1.024,2.812 0,1.426 0.586,2.574 1.461,3.176 z"
         style="fill:#000000;fill-opacity:1;fill-rule:nonzero;stroke:none"
         id="path1316" />
      <path
         d="m 36.691,28.59 h 0.598 c 0.125,0 0.199,0 0.199,-0.125 0,-0.09 -0.086,-0.09 -0.187,-0.09 h -0.574 c 0.113,-0.574 0.175,-0.937 0.238,-1.223 0.023,-0.101 0.039,-0.175 0.137,-0.25 0.089,-0.074 0.136,-0.09 0.199,-0.09 0.101,0 0.203,0.028 0.289,0.079 -0.039,0.011 -0.074,0.023 -0.102,0.047 -0.109,0.062 -0.187,0.175 -0.187,0.3 0,0.153 0.113,0.239 0.25,0.239 0.187,0 0.363,-0.165 0.363,-0.387 0,-0.301 -0.312,-0.449 -0.613,-0.449 -0.223,0 -0.625,0.097 -0.824,0.687 -0.063,0.149 -0.063,0.16 -0.223,1.047 h -0.488 c -0.125,0 -0.2,0 -0.2,0.125 0,0.09 0.086,0.09 0.188,0.09 h 0.461 l -0.461,2.472 c -0.125,0.641 -0.215,1.188 -0.563,1.188 -0.015,0 -0.152,0 -0.265,-0.074 0.289,-0.074 0.289,-0.336 0.289,-0.348 0,-0.152 -0.113,-0.238 -0.25,-0.238 -0.176,0 -0.363,0.148 -0.363,0.387 0,0.273 0.277,0.449 0.589,0.449 0.399,0 0.661,-0.41 0.75,-0.563 0.223,-0.425 0.375,-1.222 0.387,-1.285 z"
         style="fill:#000000;fill-opacity:1;fill-rule:nonzero;stroke:none"
         id="path1318" />
      <path
         d="m 39.73,29.109 c 0,-0.136 -0.113,-0.187 -0.199,-0.187 -0.148,0 -0.261,0.152 -0.261,0.266 0,0.097 0.074,0.187 0.187,0.187 0.125,0 0.273,-0.113 0.273,-0.266 z m -1.023,3.203 c -0.09,0.36 -0.375,0.598 -0.652,0.598 -0.012,0 -0.149,0 -0.149,-0.012 0,-0.011 0.012,-0.023 0.012,-0.023 0.074,-0.063 0.113,-0.141 0.113,-0.203 0,-0.16 -0.125,-0.188 -0.199,-0.188 -0.125,0 -0.262,0.102 -0.262,0.278 0,0.261 0.297,0.312 0.485,0.312 0.328,0 0.902,-0.176 1.05,-0.75 l 0.426,-1.715 c 0.012,-0.047 0.024,-0.097 0.024,-0.16 0,-0.277 -0.235,-0.465 -0.547,-0.465 -0.539,0 -0.875,0.653 -0.875,0.739 0,0.027 0.023,0.062 0.086,0.062 0.062,0 0.074,-0.012 0.101,-0.074 0.149,-0.313 0.41,-0.563 0.672,-0.563 0.153,0 0.176,0.114 0.176,0.239 0,0.062 0,0.125 -0.012,0.136 z"
         style="fill:#000000;fill-opacity:1;fill-rule:nonzero;stroke:none"
         id="path1320" />
      <path
         d="m 41.816,31.027 c 0,0.411 -0.086,0.785 -0.476,1.176 -0.024,0.024 -0.035,0.035 -0.035,0.063 0,0.046 0.05,0.086 0.086,0.086 0.074,0 0.613,-0.5 0.613,-1.25 0,-0.399 -0.164,-0.688 -0.438,-0.688 -0.226,0 -0.351,0.188 -0.351,0.352 0,0.187 0.125,0.359 0.351,0.359 0.164,0 0.25,-0.086 0.25,-0.098 z"
         style="fill:#000000;fill-opacity:1;fill-rule:nonzero;stroke:none"
         id="path1322" />
      <path
         d="m 44.938,30.777 c 0,-0.215 -0.188,-0.363 -0.36,-0.363 -0.203,0 -0.351,0.176 -0.351,0.352 0,0.222 0.175,0.359 0.351,0.359 0.199,0 0.36,-0.16 0.36,-0.348 z"
         style="fill:#000000;fill-opacity:1;fill-rule:nonzero;stroke:none"
         id="path1324" />
      <path
         d="m 47.949,30.777 c 0,-0.215 -0.187,-0.363 -0.363,-0.363 -0.199,0 -0.348,0.176 -0.348,0.352 0,0.222 0.172,0.359 0.348,0.359 0.199,0 0.363,-0.16 0.363,-0.348 z"
         style="fill:#000000;fill-opacity:1;fill-rule:nonzero;stroke:none"
         id="path1326" />
      <path
         d="m 50.961,30.777 c 0,-0.215 -0.188,-0.363 -0.363,-0.363 -0.2,0 -0.352,0.176 -0.352,0.352 0,0.222 0.176,0.359 0.352,0.359 0.199,0 0.363,-0.16 0.363,-0.348 z"
         style="fill:#000000;fill-opacity:1;fill-rule:nonzero;stroke:none"
         id="path1328" />
      <path
         d="m 54.648,29.539 c 0,-0.613 -0.113,-1.336 -0.5,-2.086 -0.312,-0.59 -0.902,-1.101 -1.011,-1.101 -0.063,0 -0.078,0.039 -0.078,0.074 0,0.027 0,0.039 0.078,0.113 0.886,0.852 1.086,2.012 1.086,3 0,1.824 -0.75,2.688 -1.075,2.988 -0.089,0.075 -0.089,0.086 -0.089,0.114 0,0.035 0.015,0.074 0.078,0.074 0.097,0 0.422,-0.324 0.472,-0.375 0.852,-0.902 1.039,-2.039 1.039,-2.801 z"
         style="fill:#000000;fill-opacity:1;fill-rule:nonzero;stroke:none"
         id="path1330" />
      <path
         d="m 195.207,30.078 c 0.023,-0.09 0.086,-0.34 0.102,-0.426 0.023,-0.062 0.062,-0.226 0.074,-0.289 0.012,-0.023 0.222,-0.437 0.5,-0.648 0.211,-0.176 0.426,-0.227 0.613,-0.227 0.223,0 0.359,0.153 0.359,0.438 0,0.152 -0.035,0.301 -0.109,0.59 -0.051,0.16 -0.152,0.586 -0.187,0.761 l -0.102,0.387 c -0.039,0.102 -0.074,0.301 -0.074,0.324 0,0.153 0.125,0.2 0.199,0.2 0.113,0 0.211,-0.075 0.262,-0.149 0.011,-0.039 0.062,-0.262 0.101,-0.387 l 0.137,-0.574 c 0.023,-0.09 0.086,-0.34 0.113,-0.426 0.086,-0.351 0.086,-0.351 0.223,-0.562 0.215,-0.313 0.516,-0.602 0.937,-0.602 0.239,0 0.375,0.137 0.375,0.438 0,0.351 -0.273,1.09 -0.398,1.386 -0.062,0.165 -0.074,0.215 -0.074,0.34 0,0.364 0.301,0.536 0.574,0.536 0.625,0 0.887,-0.887 0.887,-0.973 0,-0.063 -0.063,-0.09 -0.098,-0.09 -0.078,0 -0.09,0.051 -0.113,0.113 -0.153,0.528 -0.414,0.778 -0.664,0.778 -0.098,0 -0.149,-0.063 -0.149,-0.215 0,-0.149 0.051,-0.285 0.114,-0.449 0.097,-0.239 0.375,-0.977 0.375,-1.325 0,-0.488 -0.329,-0.715 -0.789,-0.715 -0.438,0 -0.801,0.227 -1.086,0.626 -0.051,-0.512 -0.465,-0.626 -0.789,-0.626 -0.301,0 -0.688,0.102 -1.04,0.563 -0.046,-0.387 -0.347,-0.563 -0.648,-0.563 -0.227,0 -0.387,0.141 -0.488,0.352 -0.16,0.301 -0.223,0.613 -0.223,0.625 0,0.063 0.047,0.086 0.098,0.086 0.09,0 0.09,-0.023 0.136,-0.199 0.079,-0.313 0.188,-0.688 0.454,-0.688 0.171,0 0.211,0.164 0.211,0.301 0,0.125 -0.04,0.238 -0.086,0.449 -0.016,0.051 -0.114,0.426 -0.141,0.512 l -0.234,0.965 c -0.028,0.097 -0.063,0.25 -0.063,0.273 0,0.153 0.125,0.2 0.211,0.2 0.113,0 0.211,-0.075 0.25,-0.149 0.023,-0.039 0.074,-0.262 0.102,-0.387 z"
         style="fill:#000000;fill-opacity:1;fill-rule:nonzero;stroke:none"
         id="path1332" />
      <path
         d="m 201.586,29.109 c 0,-0.109 -0.086,-0.187 -0.188,-0.187 -0.136,0 -0.273,0.125 -0.273,0.266 0,0.109 0.086,0.187 0.187,0.187 0.161,0 0.274,-0.141 0.274,-0.266 z m -0.285,1.676 c 0.023,-0.051 0.062,-0.16 0.086,-0.211 0.011,-0.039 0.023,-0.09 0.023,-0.176 0,-0.261 -0.234,-0.414 -0.472,-0.414 -0.489,0 -0.727,0.641 -0.727,0.739 0,0.027 0.027,0.062 0.09,0.062 0.074,0 0.086,-0.023 0.097,-0.062 0.137,-0.461 0.387,-0.575 0.528,-0.575 0.086,0 0.125,0.063 0.125,0.176 0,0.086 -0.028,0.16 -0.039,0.199 l -0.25,0.614 c -0.063,0.136 -0.063,0.148 -0.125,0.312 -0.063,0.137 -0.075,0.199 -0.075,0.285 0,0.239 0.211,0.414 0.473,0.414 0.488,0 0.727,-0.636 0.727,-0.738 0,-0.012 0,-0.074 -0.086,-0.074 -0.078,0 -0.078,0.023 -0.102,0.125 -0.074,0.238 -0.273,0.523 -0.523,0.523 -0.09,0 -0.125,-0.046 -0.125,-0.172 0,-0.089 0.023,-0.164 0.086,-0.312 z"
         style="fill:#000000;fill-opacity:1;fill-rule:nonzero;stroke:none"
         id="path1334" />
      <path
         d="m 204.281,29.109 c 0,-0.136 -0.113,-0.187 -0.199,-0.187 -0.152,0 -0.266,0.152 -0.266,0.266 0,0.097 0.079,0.187 0.188,0.187 0.125,0 0.277,-0.113 0.277,-0.266 z m -1.027,3.203 c -0.086,0.36 -0.375,0.598 -0.649,0.598 -0.011,0 -0.148,0 -0.148,-0.012 0,-0.011 0.012,-0.023 0.012,-0.023 0.074,-0.063 0.113,-0.141 0.113,-0.203 0,-0.16 -0.125,-0.188 -0.203,-0.188 -0.125,0 -0.262,0.102 -0.262,0.278 0,0.261 0.301,0.312 0.488,0.312 0.325,0 0.899,-0.176 1.051,-0.75 l 0.426,-1.715 c 0.012,-0.047 0.023,-0.097 0.023,-0.16 0,-0.277 -0.238,-0.465 -0.55,-0.465 -0.535,0 -0.875,0.653 -0.875,0.739 0,0.027 0.027,0.062 0.09,0.062 0.062,0 0.074,-0.012 0.097,-0.074 0.153,-0.313 0.414,-0.563 0.676,-0.563 0.148,0 0.176,0.114 0.176,0.239 0,0.062 0,0.125 -0.012,0.136 z"
         style="fill:#000000;fill-opacity:1;fill-rule:nonzero;stroke:none"
         id="path1336" />
      <path
         d="m 211.723,29 c 0.086,0 0.222,0 0.222,-0.148 0,-0.137 -0.16,-0.137 -0.25,-0.137 h -4.011 c -0.098,0 -0.25,0 -0.25,0.137 0,0.148 0.125,0.148 0.226,0.148 z m -0.028,1.352 c 0.09,0 0.25,0 0.25,-0.137 0,-0.153 -0.136,-0.153 -0.222,-0.153 h -4.063 c -0.101,0 -0.226,0 -0.226,0.153 0,0.137 0.152,0.137 0.25,0.137 z"
         style="fill:#000000;fill-opacity:1;fill-rule:nonzero;stroke:none"
         id="path1338" />
      <path
         d="m 217.16,26.789 c 0,-0.074 -0.074,-0.086 -0.113,-0.086 -0.074,0 -0.086,0.035 -0.109,0.137 l -0.364,1.461 c -1.125,0.051 -2.039,0.902 -2.039,1.726 0,0.637 0.551,1.137 1.313,1.176 -0.051,0.188 -0.098,0.399 -0.149,0.598 -0.074,0.301 -0.125,0.527 -0.125,0.551 0,0 0,0.074 0.086,0.074 0.09,0 0.09,-0.035 0.125,-0.149 l 0.262,-1.074 c 1.141,-0.051 2.039,-0.891 2.039,-1.726 0,-0.727 -0.637,-1.137 -1.301,-1.165 z m -0.426,1.688 c 0.477,0.039 0.903,0.3 0.903,0.886 0,0.614 -0.438,1.551 -1.539,1.653 z m -0.836,2.55 C 215.688,31.016 215,30.914 215,30.141 c 0,-0.688 0.512,-1.551 1.523,-1.653 z"
         style="fill:#000000;fill-opacity:1;fill-rule:nonzero;stroke:none"
         id="path1340" />
      <path
         d="m 220.363,32.715 c 0.051,0 0.125,0 0.125,-0.074 0,-0.028 0,-0.028 -0.09,-0.114 -0.875,-0.824 -1.086,-2 -1.086,-2.988 0,-1.836 0.75,-2.699 1.075,-3 0.101,-0.074 0.101,-0.086 0.101,-0.113 0,-0.035 -0.027,-0.074 -0.09,-0.074 -0.097,0 -0.421,0.324 -0.472,0.375 -0.852,0.898 -1.028,2.039 -1.028,2.812 0,1.426 0.59,2.574 1.465,3.176 z"
         style="fill:#000000;fill-opacity:1;fill-rule:nonzero;stroke:none"
         id="path1342" />
      <path
         d="m 221.109,32.152 c -0.023,0.098 -0.023,0.137 -0.023,0.149 0,0.164 0.125,0.199 0.199,0.199 0.035,0 0.176,-0.012 0.262,-0.172 0.039,-0.078 0.164,-0.664 0.387,-1.539 0.074,0.137 0.289,0.399 0.675,0.399 0.774,0 1.637,-0.848 1.637,-1.813 0,-0.711 -0.473,-1.063 -0.973,-1.063 -0.589,0 -1.339,0.528 -1.562,1.454 z m 1.489,-1.136 c -0.438,0 -0.575,-0.465 -0.575,-0.551 0,-0.027 0.161,-0.676 0.172,-0.727 0.289,-1.125 0.891,-1.25 1.078,-1.25 0.297,0 0.473,0.278 0.473,0.625 0,0.239 -0.125,0.875 -0.312,1.262 -0.188,0.363 -0.524,0.641 -0.836,0.641 z"
         style="fill:#34c45e;fill-opacity:1;fill-rule:nonzero;stroke:none"
         id="path1344" />
      <path
         d="m 225.402,30.375 h 0.637 v -0.187 h -0.648 v -0.524 c 0,-0.437 0.273,-0.625 0.476,-0.625 0.063,0 0.11,0.012 0.137,0.012 -0.039,0.027 -0.09,0.062 -0.09,0.187 0,0.125 0.09,0.227 0.227,0.227 0.136,0 0.226,-0.102 0.226,-0.227 0,-0.211 -0.215,-0.363 -0.5,-0.363 -0.39,0 -0.84,0.277 -0.84,0.789 v 0.524 h -0.437 v 0.187 h 0.437 v 1.488 c 0,0.199 -0.05,0.199 -0.375,0.199 v 0.188 c 0.114,-0.012 0.477,-0.023 0.575,-0.023 0.25,0 0.589,0.023 0.652,0.023 v -0.188 h -0.102 c -0.363,0 -0.375,-0.046 -0.375,-0.21 z"
         style="fill:#34c45e;fill-opacity:1;fill-rule:nonzero;stroke:none"
         id="path1346" />
      <path
         d="m 229.09,32.715 c 0.051,0 0.125,0 0.125,-0.074 0,-0.028 0,-0.028 -0.086,-0.114 -0.875,-0.824 -1.09,-2 -1.09,-2.988 0,-1.836 0.75,-2.699 1.074,-3 0.102,-0.074 0.102,-0.086 0.102,-0.113 0,-0.035 -0.024,-0.074 -0.086,-0.074 -0.102,0 -0.426,0.324 -0.477,0.375 -0.851,0.898 -1.023,2.039 -1.023,2.812 0,1.426 0.586,2.574 1.461,3.176 z"
         style="fill:#34c45e;fill-opacity:1;fill-rule:nonzero;stroke:none"
         id="path1348" />
      <path
         d="m 232.074,27.215 c 0.051,-0.215 0.063,-0.227 0.324,-0.227 h 0.512 c 0.528,0 1.016,0.125 1.016,0.653 0,0.273 -0.141,0.722 -0.438,0.921 -0.3,0.227 -0.664,0.29 -1.039,0.29 h -0.789 z m 1.086,1.75 c 0.778,-0.199 1.391,-0.676 1.391,-1.227 0,-0.55 -0.625,-0.961 -1.516,-0.961 h -1.875 c -0.109,0 -0.199,0 -0.199,0.114 0,0.097 0.09,0.097 0.187,0.097 0.215,0 0.403,0 0.403,0.102 0,0.023 -0.016,0.023 -0.028,0.113 l -0.863,3.422 c -0.047,0.238 -0.062,0.289 -0.535,0.289 -0.125,0 -0.199,0 -0.199,0.125 0,0.023 0.023,0.086 0.097,0.086 0.125,0 0.278,-0.012 0.403,-0.023 h 0.386 c 0.598,0 0.786,0.023 0.825,0.023 0.039,0 0.125,0 0.125,-0.125 0,-0.086 -0.086,-0.086 -0.188,-0.086 -0.023,0 -0.136,0 -0.25,-0.012 -0.136,-0.011 -0.148,-0.027 -0.148,-0.09 0,-0.035 0.012,-0.074 0.023,-0.097 l 0.414,-1.676 h 0.825 c 0.574,0 0.761,0.301 0.761,0.563 0,0.086 -0.051,0.273 -0.074,0.398 -0.063,0.188 -0.125,0.438 -0.125,0.562 0,0.489 0.426,0.704 0.898,0.704 0.551,0 0.813,-0.625 0.813,-0.75 0,-0.028 -0.023,-0.09 -0.098,-0.09 -0.078,0 -0.09,0.051 -0.101,0.09 -0.137,0.437 -0.414,0.562 -0.602,0.562 -0.234,0 -0.262,-0.176 -0.262,-0.39 0,-0.211 0.04,-0.485 0.063,-0.7 0.027,-0.187 0.027,-0.222 0.027,-0.285 0,-0.391 -0.238,-0.613 -0.578,-0.738 z"
         style="fill:#34c45e;fill-opacity:1;fill-rule:nonzero;stroke:none"
         id="path1350" />
      <path
         d="m 236.363,29.109 c 0,-0.109 -0.086,-0.187 -0.187,-0.187 -0.137,0 -0.274,0.125 -0.274,0.266 0,0.109 0.086,0.187 0.188,0.187 0.16,0 0.273,-0.141 0.273,-0.266 z m -0.285,1.676 c 0.024,-0.051 0.063,-0.16 0.086,-0.211 0.012,-0.039 0.024,-0.09 0.024,-0.176 0,-0.261 -0.235,-0.414 -0.473,-0.414 -0.488,0 -0.727,0.641 -0.727,0.739 0,0.027 0.028,0.062 0.09,0.062 0.074,0 0.086,-0.023 0.098,-0.062 0.136,-0.461 0.386,-0.575 0.527,-0.575 0.086,0 0.125,0.063 0.125,0.176 0,0.086 -0.027,0.16 -0.039,0.199 l -0.25,0.614 c -0.062,0.136 -0.062,0.148 -0.125,0.312 -0.062,0.137 -0.074,0.199 -0.074,0.285 0,0.239 0.211,0.414 0.472,0.414 0.489,0 0.727,-0.636 0.727,-0.738 0,-0.012 0,-0.074 -0.086,-0.074 -0.078,0 -0.078,0.023 -0.101,0.125 -0.075,0.238 -0.274,0.523 -0.524,0.523 -0.09,0 -0.125,-0.046 -0.125,-0.172 0,-0.089 0.024,-0.164 0.086,-0.312 z"
         style="fill:#34c45e;fill-opacity:1;fill-rule:nonzero;stroke:none"
         id="path1352" />
      <path
         d="m 239.707,27.215 c 0.051,-0.215 0.063,-0.227 0.324,-0.227 h 0.512 c 0.527,0 1.012,0.125 1.012,0.653 0,0.273 -0.137,0.722 -0.438,0.921 -0.297,0.227 -0.66,0.29 -1.035,0.29 h -0.789 z m 1.086,1.75 c 0.777,-0.199 1.387,-0.676 1.387,-1.227 0,-0.55 -0.625,-0.961 -1.512,-0.961 h -1.875 c -0.113,0 -0.199,0 -0.199,0.114 0,0.097 0.086,0.097 0.187,0.097 0.211,0 0.399,0 0.399,0.102 0,0.023 -0.012,0.023 -0.024,0.113 l -0.863,3.422 c -0.051,0.238 -0.063,0.289 -0.535,0.289 -0.125,0 -0.203,0 -0.203,0.125 0,0.023 0.027,0.086 0.101,0.086 0.125,0 0.274,-0.012 0.399,-0.023 h 0.39 c 0.598,0 0.785,0.023 0.825,0.023 0.035,0 0.125,0 0.125,-0.125 0,-0.086 -0.09,-0.086 -0.188,-0.086 -0.027,0 -0.137,0 -0.25,-0.012 -0.137,-0.011 -0.152,-0.027 -0.152,-0.09 0,-0.035 0.015,-0.074 0.027,-0.097 l 0.41,-1.676 h 0.828 c 0.575,0 0.762,0.301 0.762,0.563 0,0.086 -0.051,0.273 -0.074,0.398 -0.063,0.188 -0.125,0.438 -0.125,0.562 0,0.489 0.422,0.704 0.898,0.704 0.551,0 0.813,-0.625 0.813,-0.75 0,-0.028 -0.024,-0.09 -0.102,-0.09 -0.074,0 -0.086,0.051 -0.097,0.09 -0.137,0.437 -0.415,0.562 -0.602,0.562 -0.238,0 -0.262,-0.176 -0.262,-0.39 0,-0.211 0.039,-0.485 0.063,-0.7 0.023,-0.187 0.023,-0.222 0.023,-0.285 0,-0.391 -0.234,-0.613 -0.574,-0.738 z"
         style="fill:#34c45e;fill-opacity:1;fill-rule:nonzero;stroke:none"
         id="path1354" />
      <path
         d="m 246.16,25.637 h -3.414 l -0.109,1.113 h 0.187 c 0.063,-0.863 0.25,-0.926 0.973,-0.926 0.101,0 0.262,0 0.312,0 0.102,0.028 0.102,0.078 0.102,0.188 v 2.453 c 0,0.16 0,0.223 -0.5,0.223 h -0.215 v 0.187 c 0.227,-0.023 0.703,-0.023 0.965,-0.023 0.25,0 0.723,0 0.961,0.023 v -0.187 h -0.223 c -0.5,0 -0.5,-0.063 -0.5,-0.223 v -2.453 c 0,-0.11 0,-0.16 0.098,-0.188 0.051,0 0.215,0 0.312,0 0.727,0 0.903,0.063 0.977,0.926 h 0.176 z"
         style="fill:#34c45e;fill-opacity:1;fill-rule:nonzero;stroke:none"
         id="path1356" />
      <path
         d="m 244.559,30.203 c 0,-0.137 -0.114,-0.187 -0.2,-0.187 -0.152,0 -0.261,0.152 -0.261,0.265 0,0.098 0.074,0.188 0.187,0.188 0.125,0 0.274,-0.114 0.274,-0.266 z m -1.024,3.203 c -0.09,0.36 -0.375,0.598 -0.652,0.598 -0.012,0 -0.149,0 -0.149,-0.012 0,-0.012 0.012,-0.023 0.012,-0.023 0.074,-0.063 0.113,-0.141 0.113,-0.203 0,-0.161 -0.125,-0.188 -0.199,-0.188 -0.125,0 -0.265,0.102 -0.265,0.277 0,0.262 0.3,0.313 0.488,0.313 0.324,0 0.902,-0.176 1.051,-0.75 l 0.425,-1.715 c 0.012,-0.047 0.024,-0.098 0.024,-0.16 0,-0.277 -0.238,-0.465 -0.551,-0.465 -0.535,0 -0.875,0.652 -0.875,0.738 0,0.028 0.027,0.063 0.09,0.063 0.062,0 0.074,-0.012 0.098,-0.074 0.152,-0.313 0.414,-0.563 0.675,-0.563 0.153,0 0.176,0.113 0.176,0.238 0,0.063 0,0.125 -0.012,0.137 z"
         style="fill:#34c45e;fill-opacity:1;fill-rule:nonzero;stroke:none"
         id="path1358" />
      <path
         d="m 248.91,29.539 c 0,-0.613 -0.113,-1.336 -0.5,-2.086 -0.312,-0.59 -0.902,-1.101 -1.015,-1.101 -0.063,0 -0.075,0.039 -0.075,0.074 0,0.027 0,0.039 0.075,0.113 0.89,0.852 1.089,2.012 1.089,3 0,1.824 -0.75,2.688 -1.074,2.988 -0.09,0.075 -0.09,0.086 -0.09,0.114 0,0.035 0.012,0.074 0.075,0.074 0.101,0 0.425,-0.324 0.476,-0.375 0.852,-0.902 1.039,-2.039 1.039,-2.801 z"
         style="fill:#34c45e;fill-opacity:1;fill-rule:nonzero;stroke:none"
         id="path1360" />
      <path
         d="m 252.004,28.59 h 0.601 c 0.125,0 0.2,0 0.2,-0.125 0,-0.09 -0.086,-0.09 -0.188,-0.09 h -0.574 c 0.113,-0.574 0.176,-0.937 0.238,-1.223 0.024,-0.101 0.035,-0.175 0.137,-0.25 0.086,-0.074 0.137,-0.09 0.199,-0.09 0.102,0 0.199,0.028 0.289,0.079 -0.039,0.011 -0.074,0.023 -0.101,0.047 -0.114,0.062 -0.188,0.175 -0.188,0.3 0,0.153 0.113,0.239 0.25,0.239 0.188,0 0.363,-0.165 0.363,-0.387 0,-0.301 -0.312,-0.449 -0.613,-0.449 -0.222,0 -0.625,0.097 -0.824,0.687 -0.063,0.149 -0.063,0.16 -0.227,1.047 h -0.484 c -0.125,0 -0.203,0 -0.203,0.125 0,0.09 0.09,0.09 0.187,0.09 h 0.465 l -0.465,2.472 c -0.125,0.641 -0.211,1.188 -0.562,1.188 -0.012,0 -0.149,0 -0.262,-0.074 0.289,-0.074 0.289,-0.336 0.289,-0.348 0,-0.152 -0.113,-0.238 -0.25,-0.238 -0.176,0 -0.363,0.148 -0.363,0.387 0,0.273 0.273,0.449 0.586,0.449 0.402,0 0.664,-0.41 0.75,-0.563 0.226,-0.425 0.375,-1.222 0.391,-1.285 z"
         style="fill:#000000;fill-opacity:1;fill-rule:nonzero;stroke:none"
         id="path1362" />
      <path
         d="m 255.047,29.109 c 0,-0.136 -0.113,-0.187 -0.199,-0.187 -0.149,0 -0.262,0.152 -0.262,0.266 0,0.097 0.074,0.187 0.187,0.187 0.125,0 0.274,-0.113 0.274,-0.266 z m -1.024,3.203 c -0.089,0.36 -0.375,0.598 -0.652,0.598 -0.012,0 -0.148,0 -0.148,-0.012 0,-0.011 0.011,-0.023 0.011,-0.023 0.075,-0.063 0.114,-0.141 0.114,-0.203 0,-0.16 -0.125,-0.188 -0.2,-0.188 -0.125,0 -0.261,0.102 -0.261,0.278 0,0.261 0.297,0.312 0.484,0.312 0.328,0 0.902,-0.176 1.051,-0.75 l 0.426,-1.715 c 0.011,-0.047 0.023,-0.097 0.023,-0.16 0,-0.277 -0.234,-0.465 -0.547,-0.465 -0.539,0 -0.875,0.653 -0.875,0.739 0,0.027 0.024,0.062 0.086,0.062 0.063,0 0.074,-0.012 0.102,-0.074 0.148,-0.313 0.41,-0.563 0.672,-0.563 0.152,0 0.175,0.114 0.175,0.239 0,0.062 0,0.125 -0.011,0.136 z"
         style="fill:#000000;fill-opacity:1;fill-rule:nonzero;stroke:none"
         id="path1364" />
      <path
         d="m 257.133,31.027 c 0,0.411 -0.09,0.785 -0.477,1.176 -0.023,0.024 -0.035,0.035 -0.035,0.063 0,0.046 0.047,0.086 0.086,0.086 0.074,0 0.613,-0.5 0.613,-1.25 0,-0.399 -0.164,-0.688 -0.437,-0.688 -0.227,0 -0.352,0.188 -0.352,0.352 0,0.187 0.125,0.359 0.352,0.359 0.16,0 0.25,-0.086 0.25,-0.098 z"
         style="fill:#000000;fill-opacity:1;fill-rule:nonzero;stroke:none"
         id="path1366" />
      <path
         d="m 260.254,30.777 c 0,-0.215 -0.188,-0.363 -0.363,-0.363 -0.2,0 -0.348,0.176 -0.348,0.352 0,0.222 0.176,0.359 0.348,0.359 0.203,0 0.363,-0.16 0.363,-0.348 z"
         style="fill:#000000;fill-opacity:1;fill-rule:nonzero;stroke:none"
         id="path1368" />
      <path
         d="m 263.266,30.777 c 0,-0.215 -0.188,-0.363 -0.364,-0.363 -0.199,0 -0.351,0.176 -0.351,0.352 0,0.222 0.176,0.359 0.351,0.359 0.2,0 0.364,-0.16 0.364,-0.348 z"
         style="fill:#000000;fill-opacity:1;fill-rule:nonzero;stroke:none"
         id="path1370" />
      <path
         d="m 266.273,30.777 c 0,-0.215 -0.187,-0.363 -0.359,-0.363 -0.203,0 -0.352,0.176 -0.352,0.352 0,0.222 0.176,0.359 0.352,0.359 0.199,0 0.359,-0.16 0.359,-0.348 z"
         style="fill:#000000;fill-opacity:1;fill-rule:nonzero;stroke:none"
         id="path1372" />
      <path
         d="m 269.965,29.539 c 0,-0.613 -0.113,-1.336 -0.5,-2.086 -0.313,-0.59 -0.903,-1.101 -1.012,-1.101 -0.062,0 -0.078,0.039 -0.078,0.074 0,0.027 0,0.039 0.078,0.113 0.887,0.852 1.086,2.012 1.086,3 0,1.824 -0.75,2.688 -1.074,2.988 -0.09,0.075 -0.09,0.086 -0.09,0.114 0,0.035 0.016,0.074 0.078,0.074 0.098,0 0.422,-0.324 0.473,-0.375 0.851,-0.902 1.039,-2.039 1.039,-2.801 z"
         style="fill:#000000;fill-opacity:1;fill-rule:nonzero;stroke:none"
         id="path1374" />
    </g>
  </g>
</svg>
